<?xml version="1.0" encoding="iso-8859-1"?>
<!-- Generator: Adobe Illustrator 22.1.0, SVG Export Plug-In . SVG Version: 6.00 Build 0)  -->
<svg version="1.1" id="Calque_1" xmlns="http://www.w3.org/2000/svg" xmlns:xlink="http://www.w3.org/1999/xlink" x="0px" y="0px"
	 viewBox="0 0 1920 1080" style="enable-background:new 0 0 1920 1080;" xml:space="preserve">
<g>
	<path style="fill:#E74C3C;" d="M269.155,272.236c15.679,2.167,23.526,3.923,23.526,5.273l3.65-2.028h2.028l3.65,2.028l1.623-3.65
		c8.378,1.084,12.574,3.517,12.574,7.301l3.65-2.028c9.735,0.811,14.602,2.028,14.602,3.65l3.65-1.622h1.622l20.281,8.923
		c0-1.077,0.538-1.622,1.622-1.622l27.176,14.196c50.561,27.042,80.17,52.462,88.828,76.254c1.622,0,3.378,1.762,5.273,5.273
		l-2.028,3.65c1.623,0,5.945,9.062,12.98,27.175v1.622c-1.356,2.434-2.028,4.329-2.028,5.679h-1.622c-2.434,0-3.65-1.217-3.65-3.65
		l1.622-3.65l-3.65-1.622c-2.434,15.958-3.65,26.098-3.65,30.421h2.028v3.65h-2.028l-3.244-1.623v1.623l1.622,3.65
		c-3.245,0-5.679,4.195-7.301,12.574c1.35,0,2.028,0.678,2.028,2.028l-3.65,1.622l1.622,3.65v2.028c-2.706,0-5.14,0.545-7.301,1.622
		v-3.65c2.434-2.434,3.65-6.623,3.65-12.574h-1.622l3.65-5.273h-2.028c-3.245,0-6.223,4.196-8.923,12.574v5.273l-5.273,5.679
		l1.623,3.65l-3.65,5.273l-3.65-1.622h-1.623c0,4.601-3.111,6.895-9.328,6.895v2.028h9.328v3.65
		c-5.951,0-12.035,7.846-18.252,23.525c-2.706,0-6.356,3.517-10.951,10.546c2.434,0,3.65,0.678,3.65,2.028v5.273h2.028
		c0,2.434-1.217,3.651-3.65,3.651c-2.167-1.078-4.601-1.622-7.301-1.622v-3.65h3.65v-2.028h-3.65
		c-1.895,4.867-3.65,7.301-5.273,7.301h-3.65l3.65-5.273l-3.65-2.028l-3.65,7.301h1.622c-1.084,2.434-1.622,4.329-1.622,5.679
		l-3.65-2.028c0,1.356-0.678,2.028-2.028,2.028l2.028,3.65c-3.245,5.951-5.679,8.923-7.301,8.923l-3.65-2.028
		c-11.357,12.168-18.658,18.252-21.903,18.252l2.028,3.65c0,4.867-4.195,7.847-12.574,8.924c0-1.077-0.678-1.623-2.028-1.623
		c0,2.435-1.217,3.652-3.65,3.652l-1.622-3.652h3.65v-3.651h-3.65c0,2.434-2.979,3.651-8.923,3.651v3.652
		c4.594,0.545,6.895,2.301,6.895,5.272l7.301-3.65v2.029c0,2.434-2.978,3.65-8.923,3.65v-2.029
		c-4.601,8.658-8.252,14.064-10.951,16.225c-10.818,6.762-16.224,10.951-16.224,12.574v2.028h7.301c0-4.057,2.434-6.49,7.301-7.301
		v-1.623c2.434,0.273,3.65,1.49,3.65,3.65c-5.14,2.434-9.468,6.623-12.98,12.574c-4.329,0-7.301,2.434-8.923,7.301
		c-2.434-1.357-4.196-2.028-5.273-2.028c-1.356,2.434-2.028,4.321-2.028,5.678l-3.65-2.028
		c-10.818,6.755-16.225,11.622-16.225,14.602l-3.65-2.029l-12.574,10.951c-1.084,0-1.622,0.672-1.622,2.029l-3.65-2.029
		c-1.623,0-5.273,3.65-10.951,10.951l-21.903,5.273v3.65c1.35,0,3.244,0.672,5.678,2.028c2.161-1.355,3.917-2.028,5.273-2.028
		c0,2.434-3.65,4.867-10.951,7.301c-1.084,0-2.84-0.545-5.273-1.623l-10.951,1.623h-3.65c0,3.511-2.434,5.273-7.301,5.273v3.65
		h5.679c-8.385,7.301-15.686,10.951-21.903,10.951l7.301-8.924v-2.028h-1.622c-3.517,3.784-13.252,8.651-29.204,14.602v3.651h3.65
		v1.622c0,2.434-1.217,3.65-3.65,3.65l-3.65-1.622c0,2.434-2.979,4.867-8.924,7.301h-7.301c0-2.434-0.538-3.65-1.622-3.65
		c-4.056,2.434-7.706,3.65-10.951,3.65v1.622h3.65c2.167-1.084,4.601-1.622,7.301-1.622v5.272l-3.65-1.622l-9.329,1.622
		c-2.161-1.084-3.917-1.622-5.273-1.622l-7.301,5.272c-2.161-1.084-3.917-1.622-5.273-1.622l1.622,3.244
		c-14.057,3.784-22.441,5.678-25.148,5.678h-5.678v-3.65h3.65l-1.623-3.651c1.895-1.084,4.867-1.622,8.924-1.622v-2.029
		c-2.7,0-5.133-0.545-7.301-1.622l-3.65,1.622c-8.651-0.811-14.602-2.572-17.847-5.272l-3.65,1.622
		c-3.511-1.084-5.273-2.301-5.273-3.65l-3.65,2.029c-12.168-4.329-18.252-7.441-18.252-9.33v-1.622h8.923
		c2.434,0,3.65-1.217,3.65-3.651c2.434,0,6.629,1.217,12.574,3.651c2.434-2.98,3.65-5.413,3.65-7.301
		c1.357,0,2.028,0.671,2.028,2.028c2.167-1.357,3.923-2.028,5.273-2.028h5.679c0-1.623,2.979-4.057,8.923-7.301h8.924
		c0-1.084,0.678-2.84,2.028-5.273c-3.784,0-5.678-0.678-5.678-2.028c1.356-2.167,2.028-3.923,2.028-5.273l-3.65,1.623h-2.028v-5.273
		c1.894,0,4.328-1.217,7.301-3.65v2.028l9.329-3.651v3.651c-3.784,0-6.895,2.295-9.329,6.896v2.028h2.028
		c1.084,0,1.623-0.678,1.623-2.028l3.65,2.028h2.028v-2.028h-3.65c2.434-4.601,5.951-6.896,10.546-6.896l2.028,3.65
		c8.385-1.355,13.79-2.572,16.224-3.65v5.273h1.622c0-3.517,1.895-6.49,5.679-8.924l8.923,1.623h3.65
		c0-4.867,4.867-7.301,14.602-7.301c0,1.35,0.539,2.028,1.623,2.028c0,3.512-2.434,5.273-7.301,5.273v2.028
		c1.888,0,4.322,1.217,7.301,3.65c8.112-3.789,12.979-5.678,14.602-5.678v-1.623l-2.028-3.65c1.35,0,3.245-0.678,5.679-2.028
		c2.161,1.35,4.594,2.028,7.301,2.028c4.867-7.845,7.301-13.252,7.301-16.223c2.161,0.266,3.244,1.483,3.244,3.65
		c-1.084,0-1.622,0.538-1.622,1.622l5.273,3.65c0-2.978,1.217-5.412,3.65-7.301l3.65,2.029h2.028l-2.028-3.65
		c8.924-4.057,15.546-10.141,19.875-18.252h2.028c1.623,0,3.378,1.755,5.273,5.272l-7.301,2.029v1.622h5.678
		c0-1.622,3.511-4.055,10.546-7.301l7.301,3.65c5.406-1.084,12.707-5.818,21.903-14.196l-7.301-2.028l1.622,3.65
		c-4.056,2.434-10.007,4.321-17.846,5.678c0-1.623,8.378-7.168,25.147-16.629h5.679c0-4.601,1.217-6.896,3.65-6.896h1.622v3.246
		h5.273v-3.246l-8.924-2.028l2.028-3.65l3.65,2.028h1.622l1.623-7.301l3.65,1.623l2.028-3.65h-3.65v-1.623
		c0-1.35,0.539-2.028,1.623-2.028l-1.623-3.65v-1.623h8.924v-1.622h-3.65v-3.65h2.028c1.623,0,3.378,1.761,5.273,5.272
		c0,2.434-1.762,3.65-5.273,3.65v5.273h1.623c3.511,0,5.944-4.727,7.301-14.196h2.028l3.245,1.622v-3.65l5.679,3.65h1.622
		c1.622-5.944,4.056-8.924,7.301-8.924v-2.026h-3.65l-16.224,9.328h-3.65v-3.65c1.888,0,4.322-2.435,7.301-7.302
		c0,1.084,0.538,1.624,1.622,1.624c0-1.624,2.434-3.379,7.301-5.275l-1.622-3.65v-1.622c3.511-3.246,5.273-5.679,5.273-7.301h3.65
		v3.65c5.679,0,12.301-4.867,19.875-14.602c2.434-1.35,4.323-2.028,5.679-2.028v2.028c-14.602,12.98-21.903,22.041-21.903,27.175
		h7.301c0-2.7,2.434-4.593,7.301-5.677c0-3.246,4.728-7.974,14.196-14.197l-1.623-3.651v-2.028c2.161,0,7.029-4.189,14.602-12.574
		l1.623,3.65c-4.867,0.545-7.301,2.301-7.301,5.273h2.028c7.301-4.056,15.141-12.434,23.526-25.147
		c-1.357-2.434-2.028-4.19-2.028-5.273c1.35,0,2.028-0.672,2.028-2.028h-3.65c0,1.356-0.678,3.244-2.028,5.678h2.028
		c-2.434,5.951-6.084,8.924-10.951,8.924c0-2.434-2.434-3.65-7.301-3.65v-2.028c5.133,0,10.545-4.728,16.224-14.196l-1.622-3.65
		l8.923-2.028v-1.623l-1.622-3.65l3.65-1.622h1.622v6.896h3.65c0-3.245,1.755-6.756,5.273-10.546h-3.244v-9.329
		c3.511,0,5.273-1.217,5.273-3.65v-3.244l-10.951,6.895l2.028,3.65v2.028h-3.65v-9.329h-2.028c0,6.224-2.979,9.329-8.923,9.329
		v5.273l3.65-1.622l1.622,8.923h-5.273l1.622-3.65v-1.622h-1.622c0,4.601-2.434,6.896-7.301,6.896
		c-2.434-1.078-4.196-1.623-5.273-1.623l-5.678,8.924c2.972,0,4.867,2.434,5.678,7.301l-5.678,3.65h-1.623l1.623-8.924h-1.623
		c-7.301,7.035-13.385,10.546-18.252,10.546h-1.622v-6.896h-2.028c-1.356,1.084-7.979,6.49-19.875,16.225v5.273
		c-1.895,2.434-5.546,3.65-10.951,3.65l-1.622,7.301h3.65l5.273-3.65v1.622c0,1.623-3.517,4.734-10.546,9.329l-3.65-2.028
		l-5.678,3.651h-3.65v-3.651h-1.623c0,4.867-2.434,7.301-7.301,7.301v3.65c3.511,0,5.273,1.217,5.273,3.65
		c-1.084,0-2.84,0.546-5.273,1.624l-1.622-3.246c-2.167,1.084-4.601,1.622-7.301,1.622l1.622,3.65
		c-2.434,0.274-3.65,1.491-3.65,3.65v1.624l9.329-3.65c2.161,1.355,3.917,2.026,5.273,2.026c0.266-2.434,1.483-3.65,3.65-3.65
		l1.623,3.65c-1.084,3.517-4.601,5.273-10.546,5.273l-7.301-1.623c0,1.084-0.678,1.623-2.028,1.623c0-2.432-1.217-3.649-3.65-3.649
		c0,3.789-2.434,5.678-7.301,5.678v1.622c0,1.357,0.672,2.029,2.028,2.029c-0.545,4.601-2.301,6.895-5.273,6.895v3.65h3.244
		c-2.167,6.224-5.678,9.328-10.545,9.328l1.622,3.65v1.623h-3.65v-5.273h-1.622c0,1.896-1.217,4.329-3.65,7.301v1.623h8.923
		c5.945-3.244,8.923-5.678,8.923-7.301c0.539-2.434,1.756-3.65,3.65-3.65h2.028v3.65h-3.65l3.65,5.678
		c-4.601,0-14.874,5.946-30.826,17.848h-1.623v-1.623c1.078-2.434,1.623-4.328,1.623-5.678c-9.735-6.49-14.602-10.68-14.602-12.574
		v-5.273l-5.273,3.65c0-1.35-0.678-2.028-2.028-2.028c0,2.434-1.084,3.65-3.245,3.65h-3.65c0-1.077,2.972-4.057,8.923-8.924
		c-1.356-4.867-2.028-9.056-2.028-12.573h-1.623v6.895h-3.65l-1.622-8.924c-2.434,0-3.65,1.763-3.65,5.273h-3.65
		c-4.867-10.001-7.301-16.631-7.301-19.874c-1.356,0-2.028-0.541-2.028-1.624v-5.272h-1.622v-2.029h5.273
		c0-2.434-1.761-3.65-5.273-3.65l-3.65-43.399c3.511,0,5.945-2.973,7.301-8.924c-1.356-6.756-2.028-11.623-2.028-14.602
		c11.084-59.218,23.792-106.269,38.128-141.151c1.888,0,6.756-4.867,14.602-14.602c1.077,2.434,1.622,4.329,1.622,5.679v3.65h-1.622
		v-5.679c-1.895,0-4.329,4.329-7.301,12.98c1.077,0,1.622,0.545,1.622,1.622l-3.245,2.028l1.623,3.245l-3.65,5.678l3.65,1.623
		c4.867-14.057,10.273-24.336,16.224-30.827c4.867,0.811,7.301,2.707,7.301,5.679h1.622l3.65-2.028v2.028l3.65-2.028
		c2.434,0.545,3.65,1.762,3.65,3.65l-1.622,3.65c1.078,2.434,1.622,4.329,1.622,5.679h2.028l3.65-2.028v2.028l-2.028,8.923h5.679
		c0-5.944,1.078-8.923,3.245-8.923h5.678c0,5.951,4.19,8.923,12.574,8.923v1.623l-1.623,3.65c3.511,0,5.273,1.217,5.273,3.65
		l-1.623,3.65c5.945,0.272,8.924,2.167,8.924,5.678c-10.546,16.225-24.476,69.226-41.778,158.998l2.028,7.301
		c-3.79,8.923-5.679,14.336-5.679,16.223c1.889,0,9.735-5.405,23.526-16.223h2.028c0,1.084,0.539,1.622,1.623,1.622
		c0-1.077,0.672-1.622,2.028-1.622v3.65h3.65v-7.301h-3.65l27.176-23.525l3.65,1.622v-5.273l3.244,2.028
		c0-6.217,6.756-14.735,20.281-25.553c33.26-34.882,54.352-68.68,63.275-101.401v-1.622c0-4.595-4.329-17.302-12.98-38.128v-3.65
		l-3.244,2.028c-2.434,0-3.65-1.217-3.65-3.65c1.077-2.434,1.622-4.322,1.622-5.679l-7.301-5.273c0,1.084-0.545,1.622-1.622,1.622
		c-6.224-6.217-18.252-13.385-36.099-21.497v-2.028l-3.65,2.028c-6.223-1.35-15.28-4.323-27.175-8.924l-3.65,1.623
		c-2.434-1.078-4.329-1.623-5.679-1.623c0,1.084-0.545,1.623-1.622,1.623c0-1.889-2.434-3.65-7.301-5.273
		c0,2.434-1.217,3.65-3.65,3.65l-3.65-2.028c0,2.434-1.217,3.65-3.65,3.65h-1.623c-2.434,0-3.65-1.217-3.65-3.65l3.65-1.623
		l3.65,1.623l1.623-3.65c-2.434,0-3.65-0.539-3.65-1.623l-3.65,1.623l-8.924-1.623v1.623c-1.084,0-1.622-0.539-1.622-1.623
		l-9.329,1.623h-3.65v-3.65h3.65v-1.623l-12.574-2.028c-17.847,1.356-31.099,3.244-39.75,5.678v1.623h5.273
		c8.651-1.078,13.518-1.623,14.602-1.623c0,1.084,0.538,1.623,1.622,1.623c0.538-2.434,1.755-3.65,3.65-3.65h18.252v3.65
		c-10.818,0-16.224,3.111-16.224,9.328l-3.65-2.028h-2.028c0,3.244-3.517,5.678-10.546,7.301c0,2.706-6.629,5.678-19.875,8.923
		l-3.65-1.622c-4.056,2.434-7.706,3.65-10.951,3.65h-2.028v-3.65h3.65l-1.622-3.65l-8.923,5.273h-5.679
		c-1.895,0-4.329-2.434-7.301-7.301c-1.084,0-1.622,0.678-1.622,2.028c-8.385,0-12.574-2.434-12.574-7.301l-3.65,1.622
		c-7.301-5.406-10.951-9.595-10.951-12.574c1.084-2.161,1.623-3.917,1.623-5.273c-2.161,0-3.245-1.217-3.245-3.65v-2.028h6.896
		l3.65,2.028v-2.028l-1.623-3.245l3.65-2.028c1.078,0,1.623,0.678,1.623,2.028c2.7,0,10.001-1.888,21.903-5.679
		c2.161,1.357,3.917,2.028,5.273,2.028c0-2.434,3.65-4.867,10.951-7.301v-2.028h-5.273v-3.65c2.161-1.077,11.762-1.622,28.798-1.622
		v1.622c16.763-0.811,25.148-2.567,25.148-5.273c1.35,0,2.028,0.545,2.028,1.622C260.498,274.403,266.449,273.319,269.155,272.236z
		 M52.155,706.235c2.167,1.35,4.601,2.028,7.301,2.028c0,2.973-5.406,5.406-16.224,7.301v-3.65
		C43.232,710.019,46.21,708.123,52.155,706.235z M75.68,700.962c0,1.623-2.972,4.057-8.923,7.301v-2.028
		C66.757,703.529,69.736,701.773,75.68,700.962z M74.058,717.186c0.272,2.434,1.489,3.651,3.65,3.651
		c2.167-1.357,3.923-2.029,5.273-2.029v-1.622H74.058z M75.68,740.711h3.65v1.623h-3.65V740.711z M84.604,713.536v5.272h3.65
		c1.894,0,3.79-1.761,5.678-5.272H84.604z M86.632,740.711v3.651h5.273v-3.651H86.632z M104.479,708.263v1.623h3.65v-1.623H104.479z
		 M106.507,698.934v2.028h3.65v-2.028H106.507z M113.808,697.311v1.623h5.273v-1.623H113.808z M113.808,708.263v1.623h1.622
		c0-2.434,1.895-3.65,5.679-3.65v-3.65C116.241,704.472,113.808,706.368,113.808,708.263z M121.109,737.06h5.273v3.65h-5.273V737.06
		z M122.731,704.612v3.65h2.028v-3.65H122.731z M122.731,711.913v1.623c2.167,0,7.035,1.217,14.602,3.65l3.65-5.273h-3.65
		c-1.35,0-2.028,0.539-2.028,1.623l-3.65-1.623H122.731z M126.381,684.737h3.65c0,2.434-1.217,3.651-3.65,3.651V684.737z
		 M126.381,698.934v5.678c4.056,0,7.035,0.539,8.923,1.623c0-5.951,2.434-8.924,7.301-8.924v-3.65L126.381,698.934z
		 M144.634,729.759h3.65v-3.65C145.85,726.648,144.634,727.865,144.634,729.759z M146.256,704.612v1.623h3.65v-1.623H146.256z
		 M146.256,715.564v3.244h2.028v-3.244H146.256z M151.529,290.082h3.65v3.65c-2.7,0-5,0.678-6.896,2.028v-2.028
		C148.556,291.299,149.64,290.082,151.529,290.082z M151.529,702.585v3.65h2.028v-3.65H151.529z M151.529,713.536v2.028h5.678
		v-2.028H151.529z M157.207,698.934v2.028h5.273v-2.028H157.207z M162.481,682.709c2.434,0.539,3.65,1.756,3.65,3.65v2.028h-3.65
		V682.709z M164.508,646.611h3.65v1.622h-3.65V646.611z M177.082,671.758v2.028c0,2.7-2.979,4.463-8.924,5.273l-2.028-3.65
		L177.082,671.758z M166.131,693.661v5.273c1.888,0,3.784-1.763,5.678-5.273H166.131z M169.781,301.033v1.623h5.273
		c1.35,0,6.217-1.217,14.602-3.65h2.028l8.923,2.028c0-2.434,1.217-3.65,3.65-3.65v-3.65L169.781,301.033z M169.781,662.834h3.65
		c0,2.434-1.217,3.651-3.65,3.651V662.834z M177.082,657.562h3.65v1.622h-3.65V657.562z M184.383,313.607v3.65h1.622v-3.65H184.383z
		 M186.006,635.659h3.65v2.028h-3.65V635.659z M188.034,320.908v3.65h1.622v-3.65H188.034z M188.034,684.737v1.623h5.273v-1.623
		H188.034z M193.306,630.386h2.028v1.623c0,2.434-1.217,3.65-3.65,3.65h-2.028v-1.623
		C190.194,631.603,191.411,630.386,193.306,630.386z M191.684,320.908l1.622,3.65l10.951-2.028v-3.245
		C199.391,320.369,195.195,320.908,191.684,320.908z M193.306,677.436v1.623h3.65v-1.623H193.306z M195.335,681.087v1.623h5.273
		v-1.623H195.335z M195.335,704.612v1.623h3.244v-1.623H195.335z M207.908,623.085c0,1.889-2.434,4.323-7.301,7.301h-2.028v-2.028
		C198.579,625.652,201.685,623.896,207.908,623.085z M222.105,646.611h2.028v1.622l-23.525,18.252l-2.028-3.651v-1.622l3.65,1.622
		c0-7.301,4.867-10.951,14.602-10.951C216.831,650.261,218.587,648.499,222.105,646.611z M205.88,642.96h2.028
		c0,2.434-1.217,3.65-3.65,3.65h-2.028C202.769,644.177,203.986,642.96,205.88,642.96z M207.908,554.132
		c0,4.867-0.678,7.301-2.028,7.301l2.028,3.651c-1.356,2.434-2.028,4.329-2.028,5.679l3.65,1.622v-18.252H207.908z M205.88,581.309
		v3.65h2.028v-3.65H205.88z M207.908,516.41v5.273h1.622v-5.273H207.908z M207.908,548.859v3.65h3.65v-3.65H207.908z
		 M207.908,673.786v3.65c2.434,0,3.65-1.217,3.65-3.65H207.908z M209.531,281.159v1.622h3.65v-1.622H209.531z M209.531,500.186
		v7.301h3.65v-2.028c-1.084-2.434-1.622-4.189-1.622-5.273H209.531z M211.559,313.607h8.923v-5.273
		C214.531,309.691,211.559,311.446,211.559,313.607z M211.559,494.508v3.65h1.622v-3.65H211.559z M211.559,684.737v3.651h1.622
		c2.434,0,3.65-1.217,3.65-3.651H211.559z M213.181,292.11v1.622h3.65v-1.622H213.181z M216.831,537.908
		c0,1.356-0.545,3.245-1.622,5.679v1.622h1.622c0-1.35,0.672-3.105,2.028-5.273v-2.028H216.831z M215.209,550.887v5.273h1.622
		v-5.273H215.209z M216.831,576.034c0,1.358-0.545,3.113-1.622,5.275l3.65,2.026v-7.301H216.831z M215.209,588.608v3.65h1.622v-3.65
		H215.209z M215.209,668.514v3.244c14.33-3.517,21.497-7.707,21.497-12.574h-3.65C225.755,665.401,219.804,668.514,215.209,668.514z
		 M215.209,675.409v2.028c2.434,0,3.65,0.539,3.65,1.623c2.161-1.084,3.917-1.623,5.273-1.623v-2.028H215.209z M216.831,281.159
		v1.622h3.65v-1.622H216.831z M216.831,523.711c1.35,2.167,2.028,3.923,2.028,5.273l-2.028,3.65v1.622h2.028l1.622-8.923v-3.65
		L216.831,523.711z M218.86,462.06v3.65h1.622v-3.65H218.86z M220.482,292.11v1.622h3.65v-1.622H220.482z M220.482,512.76v7.301
		h1.623v-7.301H220.482z M220.482,547.237c1.078,4.601,1.623,9.328,1.623,14.196h2.028v-12.574L220.482,547.237z M220.482,695.284
		h3.65v2.028h-3.65V695.284z M222.105,322.531h3.65v-3.245C223.322,319.558,222.105,320.642,222.105,322.531z M222.105,503.837v3.65
		h2.028v-3.65H222.105z M225.755,481.934l-1.623,8.923c2.434,1.357,4.19,2.028,5.273,2.028h2.028v-2.028
		c-2.434,0-3.65-2.972-3.65-8.923H225.755z M224.132,671.758v2.028h3.65v-2.028H224.132z M224.132,686.36v2.028
		c1.35,0,3.106,0.539,5.273,1.623h2.028v-1.623c-1.356,0-3.244-0.678-5.678-2.028H224.132z M225.755,290.082v3.65h2.028v-3.65
		H225.755z M225.755,434.883v5.273h2.028v-5.273H225.755z M229.406,586.985l-3.65,21.498c3.784,0,5.678-5.944,5.678-17.846v-3.652
		H229.406z M227.783,425.96v1.622h3.65v-1.622H227.783z M231.433,462.06c0,2.978-1.217,5.951-3.65,8.923v5.679l7.301-5.679
		c-1.356-1.888-2.028-4.867-2.028-8.923H231.433z M229.406,458.409v2.028h5.678v-3.65
		C232.65,457.87,230.756,458.409,229.406,458.409z M233.056,554.132c0,3.79-1.217,5.679-3.65,5.679v7.301
		c0.538,2.434,1.755,3.65,3.65,3.65v-2.028l-1.623-3.65l3.65-7.301v-3.65H233.056z M229.406,577.658v2.026h3.65v-5.272
		C230.623,574.684,229.406,575.768,229.406,577.658z M233.056,288.46v3.65h5.678v-2.028
		C237.378,290.082,235.49,289.543,233.056,288.46z M235.084,391.484v3.65h1.623v-3.65H235.084z M235.084,442.184v3.65h1.623v-3.65
		H235.084z M235.084,532.635v5.273h1.623c0-1.078,0.672-2.839,2.028-5.273H235.084z M235.084,539.936v5.273h1.623v-5.273H235.084z
		 M235.084,666.485v2.029h5.273l19.875-12.98l3.65,2.029h2.028v-2.029l-7.301-1.622C245.357,662.29,237.517,666.485,235.084,666.485
		z M238.734,376.882c-1.356,6.489-2.028,10.14-2.028,10.951c2.434-1.078,4.322-1.623,5.678-1.623l-2.028-3.65l2.028-3.65
		L238.734,376.882z M236.707,429.611v3.65h3.65c0-2.434,1.217-3.65,3.65-3.65v-3.65h-3.65
		C237.923,426.233,236.707,427.449,236.707,429.611z M236.707,615.784v8.924h2.028l1.623-6.896L236.707,615.784z M236.707,671.758
		v2.028h3.65v-2.028H236.707z M238.734,315.635v3.65h1.623v-3.65H238.734z M238.734,514.383v3.65h1.623v-3.65H238.734z
		 M240.357,288.46v1.622h5.273v-1.622H240.357z M240.357,509.109v3.65h2.028v-3.65H240.357z M242.385,420.282v3.65h1.623v-3.65
		H242.385z M244.008,668.514v3.244h1.622c2.434,0,3.65-1.084,3.65-3.244v-2.029C247.113,667.835,245.357,668.514,244.008,668.514z
		 M245.63,628.359v3.65h2.028l1.622-8.924C246.847,623.085,245.63,624.841,245.63,628.359z M251.308,451.108v3.65h1.622v-3.65
		H251.308z M254.959,315.635h3.65v3.65h-3.65V315.635z M262.26,360.657c2.7,0,5,0.678,6.895,2.028v-9.329
		C267.26,353.356,264.96,355.79,262.26,360.657z M262.26,447.458v3.65h1.622l2.028-8.924
		C263.477,442.184,262.26,443.946,262.26,447.458z M262.26,579.684v3.65h1.622v-3.65H262.26z M263.882,313.607h2.028v3.65h-2.028
		V313.607z M263.882,431.233v7.301c2.434,0,5.406-7.839,8.923-23.525h2.028c-1.356-2.434-2.028-4.189-2.028-5.273
		C271.449,409.736,268.477,416.904,263.882,431.233z M263.882,650.261c0,1.622,1.755,3.378,5.273,5.272v-5.272H263.882z
		 M265.91,556.16v3.65h1.622v-3.65H265.91z M267.533,572.383v3.65h1.622v-3.65H267.533z M269.155,527.362v3.245h2.028v-3.245
		H269.155z M269.155,563.461v5.273h2.028v-5.273H269.155z M272.805,539.936v5.273h2.028v-5.273H272.805z M272.805,583.335v3.651
		h2.028v-3.651H272.805z M274.833,454.759v3.65h1.622v-3.65H274.833z M274.833,615.784h1.622v3.65h-1.622V615.784z M283.757,311.985
		c2.434,1.084,4.323,1.623,5.679,1.623c0-1.078,0.538-1.623,1.622-1.623l1.623,3.65l-3.245,1.623h-2.028l-3.65-1.623v1.623
		c-2.434-1.078-4.195-1.623-5.273-1.623C278.484,313.201,280.239,311.985,283.757,311.985z M278.484,389.861v6.896h1.622
		l2.028-8.923v-1.623C279.701,386.484,278.484,387.7,278.484,389.861z M289.435,601.182h1.622v5.678h-7.301l2.028,3.65v1.623h-2.028
		c-1.622,0-3.384-1.756-5.273-5.273C279.562,603.077,283.212,601.182,289.435,601.182z M280.106,427.582v3.65h2.028v-3.65H280.106z
		 M280.106,467.332v3.65h2.028v-3.65H280.106z M282.134,489.235v3.65h1.622v-3.65H282.134z M285.785,590.637h1.622v3.65h-5.273
		C282.401,591.854,283.617,590.637,285.785,590.637z M283.757,637.687v3.65h2.028v-3.65H283.757z M285.785,451.108v3.65
		c2.434,0,3.65,1.217,3.65,3.65h1.622v-5.273l-3.65-2.028H285.785z M287.407,635.659v2.028h3.65v-2.028H287.407z M291.057,438.534
		v1.623h3.65v-1.623H291.057z M292.68,425.96v3.65h2.028v-3.65H292.68z M294.708,302.656v2.028h3.65v-2.028H294.708z
		 M296.331,413.387l-1.623,8.923v1.622h1.623c0-2.972,1.217-5.944,3.65-8.923L296.331,413.387z M294.708,445.835v3.65h1.623v-3.65
		H294.708z M294.708,617.812v3.65h1.623v-3.65H294.708z M302.009,568.734h1.623c0,1.895-1.762,3.791-5.273,5.679h-2.028
		C296.331,572.525,298.219,570.629,302.009,568.734z M299.981,576.034h3.65v5.275h-3.65V576.034z M302.009,626.736v1.623
		c1.889,0,4.323-2.301,7.301-6.896h-2.028C305.659,621.462,303.898,623.218,302.009,626.736z M309.31,563.461h1.623
		c-1.084,2.167-1.623,3.923-1.623,5.273h-5.678C303.632,567.112,305.52,565.356,309.31,563.461z M307.282,642.96
		c1.35,0,2.028,0.671,2.028,2.028l3.65-2.028h1.623v2.028c0,2.161-1.217,3.244-3.65,3.244s-3.65-1.084-3.65-3.244V642.96z
		 M327.157,556.16c0,2.434,1.217,3.65,3.65,3.65v1.622c-2.167,0-8.112,4.329-17.847,12.98c-2.434,0-3.65-1.217-3.65-3.65
		C309.31,569.14,315.255,564.272,327.157,556.16z M314.583,304.684c0,1.623,1.755,3.384,5.273,5.273v-1.623
		c0-2.434-1.217-3.65-3.65-3.65H314.583z M314.583,597.938v3.244h1.622v-3.244H314.583z M323.506,603.21
		c0,1.896-1.217,4.33-3.65,7.301c0.538,2.434,1.755,3.65,3.65,3.65c1.888,0,4.322-2.434,7.301-7.301v-2.028l-3.65,2.028
		C327.157,604.427,325.94,603.21,323.506,603.21z M323.506,574.412v1.622h3.65v-1.622H323.506z M330.807,545.209h2.028
		c0,2.434-1.217,3.65-3.65,3.65h-2.028C327.695,546.426,328.912,545.209,330.807,545.209z M330.807,592.259
		c0,1.896-1.217,4.329-3.65,7.301v1.623h3.65c0-1.623,1.217-3.917,3.65-6.895v-2.029H330.807z M332.835,550.887v3.244h-3.65
		C329.451,551.971,330.668,550.887,332.835,550.887z M332.835,537.908h1.622c2.434,0.545,3.65,1.762,3.65,3.651
		c0,2.434-1.217,3.65-3.65,3.65L332.835,537.908z M332.835,615.784h3.65v3.65h-3.65V615.784z M347.031,606.861v5.273
		c-1.895,0-4.328,1.217-7.301,3.65h-3.244v-5.273L347.031,606.861z M341.759,534.257v2.028c0,2.434-1.217,3.65-3.65,3.65v-2.028
		C338.374,535.474,339.591,534.257,341.759,534.257z M341.759,543.587c2.434,0.272,3.65,1.489,3.65,3.65h-3.65V543.587z
		 M347.031,570.762h2.028v3.65h-5.679C343.92,571.979,345.137,570.762,347.031,570.762z M352.71,534.257
		c0,1.895-1.895,3.79-5.679,5.679h-1.622v-3.65L352.71,534.257z M356.36,541.558h1.622c-2.434,4.867-6.084,8.518-10.951,10.951
		v-1.622C347.031,549.265,350.137,546.159,356.36,541.558z M356.36,520.061v1.623h3.65v-1.623H356.36z M372.584,534.257l1.623,3.65
		c-2.434,4.867-7.168,10.28-14.196,16.224c-2.434,0-3.65-1.077-3.65-3.244C357.71,550.887,363.116,545.348,372.584,534.257z
		 M356.36,579.684c0.266,2.434,1.483,3.65,3.65,3.65h1.622v-3.65H356.36z M363.256,534.257h2.028c0,1.895-1.761,3.79-5.273,5.679
		v-2.028C360.277,535.474,361.361,534.257,363.256,534.257z M363.256,565.083v3.65h2.028v-3.65H363.256z M365.284,505.459v2.028
		l3.65-2.028h1.623l3.65,2.028v-7.301h-3.65C368.934,500.186,367.173,501.948,365.284,505.459z M366.906,567.112v3.65h2.028v-3.65
		H366.906z M372.584,498.158h3.65v-3.65C373.801,495.053,372.584,496.27,372.584,498.158z M376.235,572.383h1.623v3.65h-1.623
		V572.383z M377.858,501.809l3.65,2.028v-5.679C379.075,498.703,377.858,499.92,377.858,501.809z M377.858,568.734h2.028v3.65
		h-2.028V568.734z M377.858,579.684h3.65v1.624h-3.65V579.684z M385.159,584.959h3.65v2.026h-3.65V584.959z M386.781,545.209v3.65
		h2.028v-3.65H386.781z M390.431,487.207v7.301h2.028v-7.301H390.431z M394.082,514.383v3.65h5.679c0-2.434-1.217-3.65-3.65-3.65
		H394.082z M403.411,556.16h1.622c0,1.622-1.762,3.384-5.273,5.273v-1.622C400.027,557.377,401.244,556.16,403.411,556.16z
		 M403.411,547.237h3.65v1.622h-3.65V547.237z M423.286,490.857l-18.252,21.903v3.65c5.945,0,8.923,2.434,8.923,7.301
		c2.434-1.35,4.323-2.028,5.679-2.028l-5.679-8.924c1.35,0,2.028-0.672,2.028-2.028h-3.65v-5.273h5.273l-1.622,3.65h10.951
		c0-7.567,2.294-13.651,6.896-18.252h-1.623l-5.273,3.65h-2.028v-3.65H423.286z M407.061,353.356v2.028h5.273v-2.028H407.061z
		 M413.956,545.209v2.028c0,1.622-1.761,3.384-5.273,5.273h-1.622v-3.65C408.684,548.859,410.978,547.642,413.956,545.209z
		 M408.684,523.711h3.65v-3.65C409.901,520.334,408.684,521.551,408.684,523.711z M413.956,481.934v3.65h2.028v-3.65H413.956z
		 M417.607,460.437c0,1.084-0.545,2.84-1.622,5.273v1.622h1.622c0-2.434,1.217-3.65,3.65-3.65v-3.245H417.607z M419.635,500.186
		v5.273c-2.434,0-3.65-1.217-3.65-3.65L419.635,500.186z M417.607,474.633h3.65v-3.65
		C418.824,471.528,417.607,472.745,417.607,474.633z M421.257,516.41h3.65v-3.65C422.474,513.033,421.257,514.25,421.257,516.41z
		 M432.209,434.883c0,2.434-2.434,6.084-7.301,10.951c0.539,2.434,1.756,3.65,3.65,3.65l5.273-12.574v-2.028H432.209z
		 M428.558,469.36v1.622c2.434,0,3.65-1.217,3.65-3.65v-1.622C429.775,465.982,428.558,467.199,428.558,469.36z M435.859,443.807
		c0,3.244-1.761,6.895-5.273,10.951l3.245,2.028h2.028l1.623-9.328v-3.65H435.859z M435.859,516.41h5.273v1.623h-5.273V516.41z
		 M443.16,449.485v3.65h1.623v-3.65H443.16z M444.783,456.786l-1.623,3.65c3.511,3.79,5.273,6.762,5.273,8.924h2.028
		c2.434,0,3.65-1.217,3.65-3.65l-2.028-3.65c3.511,0,5.273-1.217,5.273-3.65c-2.706,0-5.007-0.539-6.896-1.623v3.65L444.783,456.786
		z M444.783,442.184v1.623l3.65,2.028v-2.028L444.783,442.184z M450.461,451.108v3.65h1.623v-3.65H450.461z M457.357,443.807v10.951
		h2.028l1.622-8.924L457.357,443.807z M466.686,427.582l-3.65-1.622h-2.028v5.273l3.65-1.622l2.028,3.65l-2.028,3.65
		c1.35,2.167,2.028,3.923,2.028,5.273c-1.357,0-2.028,0.545-2.028,1.623l5.679,3.65c0-1.078,0.538-1.623,1.622-1.623v5.273h2.028
		v-3.65c-1.357-2.161-2.028-3.917-2.028-5.273l3.65-7.301c-1.084-2.161-1.622-4.594-1.622-7.301c0-1.077,0.538-1.622,1.622-1.622
		l-1.622-3.65c0.266-2.434,1.483-3.65,3.65-3.65c-1.357-1.888-2.028-4.867-2.028-8.923c-1.356,0-3.79,5.412-7.301,16.224
		C467.224,425.96,466.686,426.506,466.686,427.582z M463.035,407.708c1.077,2.167,1.622,5.14,1.622,8.923h2.028v-8.923H463.035z
		 M463.035,418.659v3.65h1.622v-3.65H463.035z M464.657,449.485v1.623h3.65v-1.623H464.657z M471.958,398.785v7.301l3.65-2.028
		c-1.084-2.161-1.622-3.917-1.622-5.273H471.958z M486.56,442.184c2.434,0.273,3.65,1.49,3.65,3.65
		c-1.895,4.867-3.79,7.301-5.679,7.301v-2.028L486.56,442.184z M488.182,425.96h3.65v3.65h-3.65V425.96z"/>
	<path style="fill:#E74C3C;" d="M587.553,379.721h1.622v3.245h3.245c2.7-2.161,4.867-3.245,6.49-3.245
		c3.245,0,5.945,3.245,8.112,9.735h1.622c0-3.245,1.078-4.867,3.245-4.867v1.622l-1.623,3.245h3.245v1.622l-3.245,4.867
		c1.078,0,1.623,0.545,1.623,1.623c-3.245,1.084-4.867,2.167-4.867,3.244c1.077,2.167,1.622,3.79,1.622,4.867h-1.622l-6.49-1.622
		c0,1.084-0.545,1.622-1.622,1.622l1.622,3.245v1.622c0,1.623-2.167,3.79-6.49,6.49h-1.622v-3.245c4.322,0,6.49-1.622,6.49-4.867
		h-3.245l-11.357,9.735c2.161,1.084,3.784,1.622,4.867,1.622v1.623l-1.622,3.244l-6.49-3.244v4.867h3.245v3.244l-8.112,1.623
		l-3.244-1.623h-1.623v1.623l6.49,1.622v1.622c-4.329,7.574-7.035,11.357-8.112,11.357v-1.623l1.622-3.244h-1.622
		c-1.622,0-3.245,1.622-4.867,4.867v4.867c-2.167,1.084-3.79,1.622-4.867,1.622v1.622h3.245v3.245l-6.49,4.867l4.867,8.112h-1.622
		l-3.245-1.623c0,1.084-0.545,1.623-1.622,1.623l1.622,3.244c-0.272,2.979-2.978,5.14-8.112,6.49c0-1.078-0.545-1.623-1.623-1.623
		v4.867l3.245-1.622c0,2.167,1.622,3.245,4.867,3.245c-6.49,5.14-9.735,8.385-9.735,9.735v4.867
		c-2.167-1.078-3.79-1.623-4.867-1.623v4.867l9.735-3.244v3.244c0,1.084-0.545,1.623-1.622,1.623l1.622,3.244v1.623h-1.622
		c-1.623,0-3.245-1.623-4.867-4.867c-1.895,1.084-4.057,1.622-6.49,1.622v8.112c0,2.434-0.545,4.601-1.622,6.49v4.867l-9.735,1.622
		c0-1.077-0.545-1.622-1.622-1.622v1.622l1.622,3.245c-1.084,0-1.622,0.545-1.622,1.622c2.161,0,3.244,1.623,3.244,4.867h1.623
		v-3.244c-1.084-2.161-1.623-3.784-1.623-4.867h1.623l9.735,1.622h3.244c0,4.329-2.167,7.573-6.49,9.735v17.847
		c-18.931,8.657-30.287,12.978-34.071,12.978h-1.622v-3.244h-3.245v1.622l1.622,3.246l-3.244,1.622
		c-1.895,0-5.14-5.945-9.735-17.847v-8.112l-3.245-1.623l1.622-8.112v-1.623l-3.244-4.867l1.622-9.735h3.245l-1.623,3.245
		c4.057,0.272,7.301,2.434,9.735,6.49c-1.084,0-1.622,0.545-1.622,1.623h1.622c2.161,0,3.245-1.078,3.245-3.245
		c-1.084,0-1.622-0.538-1.622-1.622h3.244v3.244h1.623v-6.49h-3.245v-1.622c0.538,0,2.7-0.539,6.489-1.623
		c0-1.077-0.545-1.622-1.622-1.622c1.078-10.812,2.7-17.302,4.867-19.469l-3.245-1.622c2.161-7.567,4.867-11.357,8.112-11.357
		v-6.489h-1.622c-2.979,0-4.601,2.706-4.867,8.112c-3.245-1.078-4.867-4.323-4.867-9.735c0-2.161,2.161-3.245,6.489-3.245v-3.245
		h-1.622l-3.245,1.623c0-6.49,2.7-9.735,8.112-9.735h1.622v-1.623h-4.867v-3.244l1.622-3.245h-1.622
		c-3.79,7.573-6.489,11.357-8.112,11.357v-3.244c2.434-6.217,5.679-10.546,9.735-12.98l6.49,3.245c0-1.078,0.538-1.623,1.622-1.623
		v4.867c2.161,0,3.245-1.077,3.245-3.244v-1.623l-1.623-3.244l8.112-1.623c0,1.084,0.539,1.623,1.622,1.623
		c-1.356-5.133-3.517-7.84-6.489-8.112c-2.706,5.413-4.867,8.112-6.49,8.112h-4.867c0-3.784,6.489-13.518,19.469-29.204
		c0-1.078-0.545-1.623-1.623-1.623l1.623-9.735c2.161,0,3.244,1.623,3.244,4.867h3.245v-3.244l-1.622-3.245l3.244-1.622v3.244h1.623
		v-8.112h3.244l-1.622,3.244h4.867v-3.244h-3.245l4.867-8.112l3.245,1.622h3.245l-1.623-3.244l11.357-6.49h3.244l3.245,1.623
		c0-1.078,0.539-1.623,1.622-1.623c0,1.084,0.539,1.623,1.623,1.623L587.553,379.721z M490.207,488.424h1.622v4.867
		c-0.811,10.818-2.434,16.225-4.867,16.225h-1.622C488.584,498.158,490.207,491.13,490.207,488.424z M493.452,537.096v3.245h3.245
		v1.622h-6.49l1.622,9.735l3.245-1.622l1.622,8.112c-1.084,0-1.622,0.545-1.622,1.622l3.244,1.622c2.161,0,3.245-1.077,3.245-3.244
		h-3.245v-9.735c0-1.078-0.545-1.623-1.622-1.623l1.622-3.244v-3.245c0-2.161-1.084-3.245-3.244-3.245H493.452z M491.829,483.556
		h3.245c0,2.167-1.084,3.245-3.245,3.245V483.556z M491.829,517.627h4.867v1.623c0,2.167-1.084,3.244-3.245,3.244h-1.622V517.627z
		 M609.456,358.63l4.867-0.406c40.015,6.762,61.246,21.231,63.68,43.4l-3.245,0.405c-0.545-4.056-1.761-6.084-3.65-6.084h-0.405
		l2.028,19.469l-3.245,0.406c-0.272-4.057-2.167-11.491-5.679-22.309h-1.622l0.405,1.623c1.35,1.895,2.161,4.056,2.434,6.49
		c-2.167,0.272-3.244,1.489-3.244,3.65h-2.84l-0.811-4.462c-0.811-8.378-5.546-12.84-14.196-13.385l1.622,3.245l0.406,1.622
		l-3.245,0.406l-0.405-4.867c-12.441,1.356-30.421,16.902-53.946,46.645c-1.622,3.245-3.517,5.006-5.678,5.273
		c0,1.084,0.538,1.623,1.622,1.623v1.217c0,4.601-2.979,7.168-8.923,7.706l2.028,3.245c-5.678,5.951-8.518,9.468-8.518,10.545
		l2.028,3.245c-6.49,8.385-12.307,19.875-17.441,34.476l1.622,2.84l0.405,1.622c-1.084,0.272-2.706,1.084-4.867,2.434
		c0.266,0.811,0.811,1.217,1.623,1.217h0.405v2.028c0,5.14-1.762,7.979-5.273,8.518v1.622c0.538,1.895,1.622,2.839,3.244,2.839
		h0.406c-2.434,13.252-5.007,20.014-7.707,20.281l2.028,3.245l0.405,4.867l-2.028,11.357c0.266,1.084,0.944,1.622,2.028,1.622
		l-0.811,8.112l3.244,16.225c15.141-1.623,31.232-8.924,48.267-21.903c1.622,0.811,3.105,1.216,4.462,1.216h0.811
		c2.434-3.783,9.868-9.461,22.309-17.035c4.056-4.322,7.161-21.497,9.328-51.512c8.651-40.288,16.225-60.702,22.714-61.246
		l0.405,4.867c4.323-2.161,7.301-5.273,8.924-9.329l3.244,1.217l6.49-0.405l3.244-2.028c0.266,1.622,10.951,5.273,32.043,10.951
		c0.266,2.706,3.244,5.14,8.923,7.301c0.266,1.356,2.839,5.413,7.706,12.168l-10.545,38.533c0.266,1.622,0.405,2.978,0.405,4.056
		c0,4.867-1.762,7.573-5.273,8.112l1.622,3.244v0.811c0,1.622-0.951,2.434-2.839,2.434l2.028,3.245
		c-0.545,3.244-1.356,5.006-2.434,5.273l1.623,2.839v0.811c0,2.706-1.49,8.112-4.462,16.224l2.434,7.707
		c-1.895,5.678-2.839,13.386-2.839,23.12c0,6.76,0.405,14.334,1.217,22.714c0.538,4.867,5.406,19.063,14.602,42.589l0.405,3.244
		c0,1.623-2.028,4.057-6.084,7.301c-17.581-5.14-28.532-11.091-32.854-17.846l-3.245,0.405l-7.706,2.434
		c-0.272-2.167-7.44-7.846-21.497-17.036c-4.056-9.189-7.706-13.79-10.951-13.79h-0.405l-4.462-10.951
		c-19.741,16.496-40.966,25.958-63.68,28.392l-3.65-1.217c-1.622,1.078-3.65,1.756-6.084,2.029l-2.028-2.84l-3.244,2.028
		c-7.574-1.084-11.63-3.384-12.168-6.895c-29.204-20.28-44.212-33.393-45.022-39.343c-2.167-2.974-4.601-10.813-7.301-23.526
		c0.538-1.35,0.811-2.972,0.811-4.867v-1.622c1.623,0.545,2.973,0.811,4.057,0.811h1.217v1.622l-3.245,0.405l0.405,4.867
		l3.245-0.405l2.434,19.469l1.217-0.405l-2.434-25.554l3.245-0.406l1.217,14.602l1.622-0.405c-0.272-3.511-0.405-6.49-0.405-8.923
		c0-4.595,0.672-7.029,2.028-7.301c0.266,2.978,0.945,4.461,2.028,4.461l-0.811,8.518l1.217,9.329h3.245l-0.405-3.246
		c-0.545-4.867-0.811-9.867-0.811-15.007c0-41.372,17.98-89.499,53.945-144.396l42.183-45.428l-9.735,1.217l-0.405-3.245
		L609.456,358.63z M492.641,544.397l3.244-0.405l0.406,4.867l-3.245,0.405L492.641,544.397z M493.452,512.76h3.245v1.623h-3.245
		V512.76z M493.858,526.145l3.244-0.405l0.811,4.867l-3.245,0.405L493.858,526.145z M495.075,501.403h3.244l3.245,1.622
		c-1.084,1.623-1.622,4.867-1.622,9.735h-3.245L495.075,501.403z M496.697,491.669h1.622v6.49h-1.622V491.669z M500.753,545.209
		l3.245-0.405l0.811,4.867h-3.245L500.753,545.209z M501.564,491.669h3.245v1.622h-3.245V491.669z M501.564,525.74
		c1.078,5.413,2.161,8.112,3.245,8.112l-1.623,3.244v1.623h4.867v-6.49l-3.244,1.623v-8.112H501.564z M501.564,550.076
		c0.266,2.167,1.35,3.245,3.245,3.245v-3.245H501.564z M501.564,567.923h3.245v-3.245
		C502.642,564.95,501.564,566.034,501.564,567.923z M503.186,478.689v3.245h1.623v-3.245H503.186z M503.186,517.627v1.623h3.245
		v-1.623H503.186z M503.186,554.943v3.245c0.266,2.167,1.35,3.244,3.245,3.244c0-1.077,0.538-2.7,1.622-4.867
		C506.97,556.565,505.348,556.027,503.186,554.943z M509.676,496.536c0,1.084,0.538,1.622,1.622,1.622
		c0,4.601-2.167,8.924-6.489,12.98v1.622l3.244-1.622h1.623l-1.623,8.112v1.622h1.623c0-1.078,1.622-9.735,4.867-25.959h-1.623
		L509.676,496.536z M504.809,545.209v3.245h1.622v-3.245H504.809z M506.431,467.332v4.867c2.161,0,3.245-1.078,3.245-3.245
		L506.431,467.332z M506.431,550.076v3.245h1.622v-3.245H506.431z M506.837,570.357l0.811,4.867h1.622l-0.811-4.867H506.837z
		 M509.676,473.822c-1.084,1.895-1.623,4.057-1.623,6.49c2.161,0,3.245-1.623,3.245-4.867h1.622l3.245,1.622v-3.245H509.676z
		 M508.054,522.495v3.245h1.623v-3.245H508.054z M508.054,545.209v1.622h4.867v-1.622H508.054z M508.46,584.959l0.405,3.243h1.622
		l-0.405-3.243H508.46z M511.299,459.22v3.245h1.622v-3.245H511.299z M517.788,460.843c0,4.328-2.167,6.49-6.489,6.49v3.245h6.489
		l1.623-8.112v-1.622H517.788z M516.166,423.527h1.622v1.622c0,2.167-1.084,3.245-3.244,3.245l-1.623-3.245L516.166,423.527z
		 M512.921,446.241v3.244h1.623v-3.244H512.921z M512.921,490.046h3.245v-3.245C513.998,487.074,512.921,488.157,512.921,490.046z
		 M512.921,522.495v8.112h1.623v-8.112H512.921z M512.921,532.229v6.49c2.161-1.078,3.784-1.623,4.867-1.623
		C517.788,535.474,516.166,533.852,512.921,532.229z M517.788,496.536c-2.167,6.762-3.244,10.546-3.244,11.357h1.622
		c2.972-5.406,5.133-8.112,6.49-8.112h1.623c0-2.161-1.084-3.245-3.245-3.245c0,1.084-0.545,1.622-1.622,1.622
		C519.411,497.081,518.866,496.536,517.788,496.536z M514.544,509.516v4.867h1.622v-4.867H514.544z M514.544,541.964v1.623h3.244
		v-1.623H514.544z M516.166,551.698c1.078,2.167,1.622,3.79,1.622,4.867c2.161-1.077,3.784-1.622,4.867-1.622
		c-2.167-2.7-3.244-5.406-3.244-8.112C517.244,546.831,516.166,548.454,516.166,551.698z M517.788,418.659h3.245v3.245h-3.245
		V418.659z M517.788,509.516v4.867h3.245v-4.867H517.788z M519.411,483.556v1.623h3.244v-1.623H519.411z M519.411,488.424v4.867
		h3.244v-4.867H519.411z M530.768,503.025c0,1.623-1.084,3.245-3.245,4.867v4.867l-8.112,3.245v1.622h4.867
		c0-1.077,0.538-1.622,1.622-1.622v3.245h8.112v-3.245h-4.867c1.888-4.322,4.056-6.489,6.489-6.489v-3.245
		c-2.167,0-3.245-1.078-3.245-3.245H530.768z M519.411,540.341v1.622h3.244v-1.622H519.411z M522.655,519.25l-1.622,3.244v1.623
		h8.112v-3.245C526.712,520.872,524.544,520.334,522.655,519.25z M521.033,525.74v3.245h1.622v-3.245H521.033z M522.655,462.465
		v3.245h1.623v-3.245H522.655z M522.655,477.067v1.622h3.245v-1.622H522.655z M524.278,538.719v3.244h1.622v-3.244H524.278z
		 M529.146,425.149c0,1.623-1.084,3.79-3.245,6.49h4.867v-6.49H529.146z M525.9,433.261v3.245h1.622v-3.245H525.9z M525.9,454.353
		v3.245c2.161,0,3.245-1.078,3.245-3.245H525.9z M525.9,472.199v3.245l3.245,1.622h1.622v-1.622c-2.167,0-3.245-1.078-3.245-3.245
		H525.9z M525.9,485.179v3.244h1.622v-3.244H525.9z M525.9,545.209v4.867l4.867-3.245c0,1.084,0.538,1.623,1.622,1.623l1.623-3.245
		v-1.622L525.9,545.209z M527.523,493.291v3.245h3.245C530.768,494.375,529.684,493.291,527.523,493.291z M527.523,551.698v3.245
		h1.623v-3.245H527.523z M545.37,441.374c-3.79,3.79-7.035,8.657-9.735,14.602c1.078,0,1.622,0.545,1.622,1.622
		c-4.328,1.622-6.49,3.245-6.49,4.867v1.622h6.49v-1.622l-1.622-3.245l9.735-6.49l-1.622-3.245l3.244-8.112H545.37z
		 M534.013,441.374c0,2.167-1.084,3.244-3.245,3.244c0.266,2.167,1.35,3.245,3.245,3.245c2.161,0,3.244-1.078,3.244-3.245
		c-1.084,0-1.622-0.538-1.622-1.622c1.078,0,1.622-0.538,1.622-1.622H534.013z M530.768,532.229v1.623h3.245v-1.623H530.768z
		 M532.39,490.046v1.622c1.078,2.167,1.623,3.79,1.623,4.867h1.622c0-2.434,0.539-4.595,1.622-6.489H532.39z M532.39,537.096v3.245
		h1.623v-3.245H532.39z M535.635,488.83c0,1.356-0.405,3.111-1.217,5.273l0.405,1.622l1.623-0.405v-0.811
		c0-1.077,0.266-2.434,0.811-4.056v-1.622H535.635z M537.257,477.067c0,4.867-0.545,8.112-1.622,9.735
		c2.161-1.078,3.784-1.622,4.867-1.622l-1.622-8.112H537.257z M535.635,533.852v3.244c2.161,0,3.245-1.077,3.245-3.244H535.635z
		 M536.852,483.962v1.622c0.538,1.895,1.622,2.839,3.245,2.839h0.405l-0.405-4.867L536.852,483.962z M537.257,395.945h3.245v1.623
		h-3.245V395.945z M537.663,433.261h1.622l0.405,3.245h-1.622L537.663,433.261z M538.88,490.046v3.244
		c2.161,0,3.244-1.077,3.244-3.244H538.88z M538.88,543.587c2.161,0.272,3.244,1.356,3.244,3.244v8.112h-3.244V543.587z
		 M543.747,392.701h1.622v3.244h-4.867C540.768,393.784,541.852,392.701,543.747,392.701z M543.341,425.96h1.623v0.405
		c0,1.623-1.357,3.245-4.057,4.867l-0.405-1.622C540.768,427.449,541.719,426.233,543.341,425.96z M544.558,465.304
		c0,1.357-1.356,4.734-4.056,10.141l6.49-0.811v-1.622c-1.356-1.889-2.028-3.378-2.028-4.462c1.888-0.266,2.839-1.217,2.839-2.839
		v-0.811L544.558,465.304z M543.747,512.76v3.245h-3.245C540.768,513.844,541.852,512.76,543.747,512.76z M540.908,478.689
		l0.406,3.245l1.622-0.405l-0.405-3.245L540.908,478.689z M542.125,464.087c0,1.623,1.623,3.245,4.867,4.867l1.623-3.244v-4.867
		C545.908,463.01,543.747,464.087,542.125,464.087z M551.859,472.605c-4.867,12.713-7.301,19.875-7.301,21.497v0.405l5.679-5.273
		l-2.028-3.245l5.273-12.168v-1.622L551.859,472.605z M571.328,413.387c-0.545,1.622-0.811,2.978-0.811,4.056v0.811
		c1.35,1.895,2.028,3.517,2.028,4.867c-1.084,0-4.601,3.111-10.545,9.329v-1.622c0-0.811,1.888-3.784,5.678-8.923l-0.405-1.623
		c-5.679,5.679-12.574,16.769-20.686,33.26l-1.622,0.405v1.217h3.244c3.245-8.651,6.49-13.923,9.735-15.819l0.406,3.245
		c-3.517,5.678-5.273,9.062-5.273,10.14h1.623c9.189-11.357,16.629-22.574,22.308-33.666c-1.622-0.538-2.979-0.811-4.056-0.811
		h-0.811l-0.405-3.245l3.244-0.405l-0.405-1.623L571.328,413.387z M545.37,460.031l0.405,3.245h1.623
		c1.888-0.266,2.839-1.217,2.839-2.84v-2.434C548.342,459.36,546.719,460.031,545.37,460.031z M546.992,397.568v3.244h1.623v-3.244
		H546.992z M550.237,433.261v1.622c2.161-1.077,3.784-1.622,4.867-1.622v-3.245h-1.622
		C551.315,430.289,550.237,431.373,550.237,433.261z M550.237,455.975v1.622c1.078,0,1.622-0.538,1.622-1.622l3.245,1.622h1.622
		v-6.489h-1.622C553.482,451.108,551.859,452.73,550.237,455.975z M550.642,492.48l0.406,1.217h1.217
		c0-0.811,1.217-5.273,3.65-13.385C554.293,480.584,552.531,484.64,550.642,492.48z M553.482,462.465v4.867h1.622v-4.867H553.482z
		 M584.713,428.394c-2.167,0-3.517-1.483-4.056-4.462c-9.735,11.902-15.28,20.553-16.63,25.959l3.245-1.623l1.622-0.405v3.245
		c-1.622,0.272-2.434,1.761-2.434,4.461v2.434l-4.867,0.406l1.217-3.245v-1.622c-1.356,0-4.195,4.056-8.518,12.168l0.406,3.244
		c1.888-0.266,2.839-1.755,2.839-4.461v-0.811l3.245-0.405l0.405,4.867h1.622c7.84-16.491,17.575-31.77,29.204-45.834l3.245,1.622
		v-0.811c0-5.406,4.322-11.624,12.98-18.658c-1.357-1.888-2.167-3.511-2.434-4.867c5.944-4.322,8.923-7.301,8.923-8.923
		c-6.223,0.811-14.602,8.252-25.148,22.308c-3.517,0.545-5.273,3.923-5.273,10.141C584.308,424.743,584.441,426.506,584.713,428.394
		z M555.104,407.303v1.622h3.245v-1.622H555.104z M556.726,475.445h3.245c0,2.167-1.084,3.244-3.245,3.244V475.445z
		 M557.132,477.067c1.888-0.266,2.839-1.217,2.839-2.839v-2.434c-1.895,0.545-2.839,1.622-2.839,3.244V477.067z M558.349,430.016
		v1.623h3.244v-1.623H558.349z M558.349,444.618v1.623h3.244v-1.623H558.349z M562,432.45l0.811,4.867h-3.244l-0.406-1.622
		C559.426,433.534,560.377,432.45,562,432.45z M559.971,441.374v1.622h3.245v-1.622H559.971z M561.594,391.078v1.623h4.867v-3.245
		C564.293,390.539,562.671,391.078,561.594,391.078z M561.594,425.149v1.623h1.623c1.622,0,3.244-1.623,4.867-4.867h-3.245
		C562.671,422.177,561.594,423.26,561.594,425.149z M564.839,438.129v1.622h3.245v-1.622H564.839z M569.706,449.485h4.867
		c-4.329,6.49-6.49,10.818-6.49,12.98h-3.245v-1.622C568.084,455.436,569.706,451.653,569.706,449.485z M568.084,433.261v1.622
		h3.244v-1.622H568.084z M569.706,418.659v3.245h1.622v-3.245H569.706z M569.706,442.996l3.245-0.405l0.405,1.622l-3.245,0.405
		L569.706,442.996z M572.951,413.792v3.245h1.622v-3.245H572.951z M574.573,408.925v1.622h3.245v-1.622H574.573z M574.573,420.282
		v3.245c2.161,0,3.245-1.078,3.245-3.245H574.573z M575.79,406.491c0.266,2.434,0.945,4.462,2.028,6.084l-1.217,3.245l0.405,1.622
		h1.622v-0.811c0-1.35,0.811-3.377,2.434-6.084l-3.244,0.406l-0.406-1.623l11.763-14.196h-1.622
		C581.329,402.435,577.412,406.225,575.79,406.491z M577.818,412.17v3.244h1.622v-3.244H577.818z M579.441,438.129h3.245
		c0,2.167-1.084,3.245-3.245,3.245V438.129z M582.686,433.261h3.244v1.622c0,2.167-1.084,3.245-3.244,3.245V433.261z
		 M583.902,406.897l4.867-0.405l-0.406-4.867h1.623l3.244,1.217l8.518-12.574l-1.622,0.405
		C592.826,395.001,587.413,400.407,583.902,406.897z M587.553,408.925l-1.623,3.245c2.161-1.078,3.784-1.623,4.867-1.623v-1.622
		H587.553z M590.392,391.889v1.217h1.622c11.624-10.001,18.252-15.007,19.875-15.007l-0.406-1.623l-3.244,0.406
		C597.421,386.617,591.47,391.623,590.392,391.889z M590.797,423.527h3.245c0,2.167-1.084,3.245-3.245,3.245V423.527z
		 M598.504,407.303l3.244-0.406v0.811c0,1.622-0.951,2.434-2.839,2.434L598.504,407.303z M600.532,386.211v1.623h3.245v-1.623
		H600.532z M600.938,563.461l3.244-0.405v0.811c0,1.623-0.951,2.574-2.839,2.84L600.938,563.461z M612.295,399.19l0.405,3.245
		l1.623-0.406v-1.217c0-3.511,1.888-5.406,5.678-5.678l-0.405-3.245h-1.622C616.351,392.162,614.456,394.595,612.295,399.19z
		 M630.142,384.183l0.405,1.622l3.245-0.405l-0.406-1.623L630.142,384.183z M670.297,422.31l3.244-0.405l0.406,3.244l-3.245,0.406
		L670.297,422.31z M710.046,651.072v1.623h3.245v-1.623H710.046z"/>
	<path style="fill:#E74C3C;" d="M823.618,372.42c1.888,6.762,4.867,11.091,8.923,12.98c0.266-4.595,1.755-6.896,4.462-6.896h1.622
		l-2.839,8.112c2.161,0,3.244,1.622,3.244,4.867l4.867-3.65h4.867v1.622l-4.461,8.112v1.622h3.244
		c0.266-5.406,1.756-8.245,4.462-8.518h1.622l0.406,1.622l-1.623,3.245h1.623c1.888-1.078,4.056-1.755,6.49-2.028
		c0,1.623-2.301,9.874-6.896,24.742c2.161,4.867,3.378,9.735,3.65,14.602h-1.622l2.028,3.244l-8.924,23.12l3.245,1.217v2.434
		c0,4.867-1.356,7.441-4.056,7.707l1.622,3.244v3.65c0,0.811-0.405,1.217-1.217,1.217l1.622,3.245v1.217
		c0,4.601-1.489,6.896-4.461,6.896l1.622,3.244l0.405,3.245c0,2.167-1.084,3.245-3.244,3.245c0-0.811-0.406-1.217-1.217-1.217
		h-0.406c0,1.895-0.951,4.601-2.839,8.112h1.622l3.245-2.028v3.244c-2.167,16.497-3.923,24.742-5.273,24.742l1.622,3.244
		l-2.839,4.867h3.244l-1.622,3.245c0,1.084,0.538,1.622,1.622,1.622c-1.622,3.79-2.434,7.168-2.434,10.141v1.217h1.623l-1.623,3.244
		l0.811,19.468h-1.622c-2.167,0-3.384-3.65-3.65-10.951h-1.623l0.811,16.225l3.245-1.624l1.622-0.405v1.622l2.434,16.225
		l-3.65-1.622l0.405,1.622c0.266,2.434,3.65,6.084,10.141,10.951c2.434,5.413,3.65,9.197,3.65,11.357
		c-1.895,0-2.84,0.811-2.84,2.434v0.811c-7.845-0.272-11.762-1.084-11.762-2.434l-3.245,1.623
		c-7.573-4.867-13.385-7.301-17.441-7.301h-0.406c0,2.167-1.084,3.244-3.244,3.244h-1.623c-4.328,0-6.489-0.944-6.489-2.838
		c-4.329,1.084-6.49,2.301-6.49,3.65c-1.623,0-6.629-4.057-15.008-12.168l-3.244,1.622h-1.623
		c-0.272-2.161-3.923-8.378-10.951-18.657l1.623-8.519h-0.406c-2.978,0-4.734-3.65-5.273-10.951l-0.405-6.489l1.217-9.735
		l-1.623-3.245l1.217-9.735l-0.405-8.112h3.245v-3.245h-3.245l-0.405-4.867h3.244v3.245l1.623-0.406v-6.49l-3.245,0.405
		c1.888-2.972,4.056-13.923,6.49-32.854c14.602-76.52,28.526-115.053,41.778-115.598l3.244,1.217L823.618,372.42z M768.861,589.42
		v1.622h3.244v-1.622H768.861z M781.029,603.616v3.244h1.622v-3.244H781.029z M814.694,496.536l3.245-0.405v-3.245
		C815.772,493.431,814.694,494.648,814.694,496.536z M824.429,460.437l0.406,3.245l1.622-0.405l-0.405-3.245L824.429,460.437z
		 M826.052,456.786h1.622l1.217-8.112c-1.895,0-2.839,1.356-2.839,4.056V456.786z M828.485,443.807l0.405,3.244h1.622l-0.405-3.244
		H828.485z M834.164,425.555v0.811c0,2.707-1.356,6.896-4.056,12.574v1.622h1.622l4.462-13.385l-0.405-1.622H834.164z
		 M861.34,202.065l9.328,9.329l0.406-2.028h2.434c16.224,11.63,24.336,22.308,24.336,32.043c0,0.811-0.14,1.623-0.406,2.434
		c0.539,0.273,0.811,1.217,0.811,2.84v2.028l-0.405,1.217c-6.224,17.581-9.468,27.581-9.735,30.015c0.538,0,0.811,0.272,0.811,0.811
		v0.405c-1.622,0-2.434,0.678-2.434,2.028c0.266,1.084,0.406,2.028,0.406,2.839v0.811c-1.895,0-5.413,8.79-10.546,26.364
		c-2.706,3.245-6.762,6.224-12.168,8.924v-0.811c0-1.078-0.678-1.622-2.028-1.622c-0.545,3.517-1.356,5.273-2.434,5.273h-1.622
		c-1.895-0.266-2.839-2.028-2.839-5.273v-1.217l-2.434,0.811V308.74l-2.028-0.406l0.811,2.434l-1.217,7.301
		c0,1.357-0.545,2.028-1.623,2.028h-0.811l-1.217-0.405c-1.895,0-3.245-4.462-4.057-13.385l-2.434-1.623l-0.405,4.462h-1.217
		c-2.434-0.538-3.651-3.105-3.651-7.706c0-1.623,0.133-3.511,0.405-5.679l-2.434,0.811l-1.622-4.057
		c0-0.538,0.266-0.811,0.811-0.811h0.405l-0.811-2.84l1.623-12.574l0.405-12.168l2.434,0.405l0.811-6.084l1.217,0.406l-0.406-6.084
		c3.784-15.141,6.756-22.714,8.924-22.714l-0.811-2.434v-1.217h2.434l0.811-6.896c0.266-0.811,0.811-1.217,1.622-1.217
		c0-0.538-0.405-0.944-1.217-1.217c3.245-9.735,5.539-14.602,6.896-14.602l2.028,1.623c0.539-1.35,1.35-2.028,2.434-2.028H861.34z
		 M833.758,549.265v4.867h1.622v-4.867H833.758z M839.842,409.33l0.405,1.623l3.245-0.406l-0.405-4.867
		C840.92,406.225,839.842,407.442,839.842,409.33z M839.842,508.299v4.867h1.622v-4.867H839.842z M842.276,299.006l-0.405,2.028
		l2.434,0.406l0.405-2.434H842.276z M843.087,291.705c0.539,1.622,0.811,2.839,0.811,3.65l1.217,0.405l0.406-3.65L843.087,291.705z
		 M843.087,400.812v3.245h1.622v-3.245H843.087z M843.493,289.271v1.217l2.434,0.405v-1.217L843.493,289.271z M843.898,389.456
		l0.406,3.245h1.622l-0.405-3.245H843.898z M849.171,430.016l3.244-0.405l-0.405-3.245
		C850.115,426.911,849.171,428.128,849.171,430.016z M854.849,416.631h1.623l0.405,3.245h-1.622L854.849,416.631z M857.689,408.519
		l1.622-0.406l0.405,3.245l-1.622,0.405L857.689,408.519z"/>
	<path style="fill:#E74C3C;" d="M960.714,271.829h1.623c0.266,1.623,2.161,3.79,5.678,6.49c-0.811,2.167-1.217,3.923-1.217,5.273
		l1.623-0.405l5.678-7.707c0.266,1.084,0.811,1.623,1.623,1.623h0.405l-2.839,7.301c2.161,5.951,6.217,8.923,12.168,8.923h2.028
		v-0.405c0-0.811,0.406-1.35,1.217-1.623l-0.405,8.924v1.622l3.245-0.405v-3.245c0-3.511,0.811-5.406,2.434-5.679h1.622
		c0,1.084-0.545,1.762-1.622,2.028c1.622,4.329,2.567,8.252,2.839,11.763l1.622-0.406v-0.811c0-2.7,0.945-4.19,2.84-4.462
		l0.405,3.245c-1.356,2.167-2.028,5.818-2.028,10.951c0,1.895,0.133,4.195,0.406,6.895c-2.167,0-3.517-3.378-4.057-10.14
		l-1.622,0.405v0.406c0,3.244-2.434,11.496-7.301,24.742l1.622-0.405c2.161,0,3.378-4.19,3.65-12.574l3.245-0.405l2.434,8.518
		c-7.301,22.714-12.98,46.106-17.036,70.17l-1.622,0.405l2.028,3.245c-2.978,4.328-4.601,9.735-4.867,16.224l3.245-0.405
		c0,1.084-0.545,1.761-1.622,2.028l2.028,3.245l0.406,4.867l-3.245,0.405l-0.811-8.518l-1.622,0.406v0.405
		c0,2.979-3.245,23.525-9.735,61.652c-0.811,24.609-2.301,37.049-4.462,37.315c0.266,1.084,0.945,1.623,2.028,1.623v4.461
		c0,22.448-1.895,33.938-5.679,34.477l4.867-0.406l1.623,15.413c0,2.167-0.545,7.98-1.623,17.442l-3.244,0.405l-2.434-6.489
		l1.622-0.406l-2.028-3.246l-1.622-19.062l1.217-3.65l-3.245,0.405l3.65,34.882l-1.217,3.65c2.161,0,3.245,0.951,3.245,2.84
		l-5.679,7.707l0.406,3.65l4.461-4.057l2.028,3.244l-3.245,0.406l0.406,3.244l2.028,3.246l-1.622,0.405
		c-5.679-1.888-8.923-6.755-9.735-14.602l-3.245,0.406l2.028,3.244l0.405,4.867v0.812c0,1.894-0.951,2.978-2.839,3.244
		c-0.272-1.889-1.622-4.057-4.056-6.49v-2.028c1.35-2.161,2.028-4.727,2.028-7.707v-2.838l3.245-0.406l0.811,5.273l1.622-0.406
		l-1.217-8.518h-0.405c-2.979,0-5.273-3.244-6.896-9.735h-0.811c-1.622,0-2.573-0.945-2.839-2.838l-2.434-22.715h3.245l-0.406-5.273
		l-3.244,2.028h-1.623l-0.405-3.244h-1.622v1.217c0,1.622-0.406,2.434-1.217,2.434c0.266,1.084,0.811,1.622,1.622,1.622h0.405
		l-0.811,8.922l2.434,8.518c-0.273,2.167-0.406,4.463-0.406,6.896c0,2.167,0.133,4.461,0.406,6.895v1.623l-3.245,0.406
		c0-1.078-0.678-2.7-2.028-4.867l0.811-8.924c-1.895-6.217-2.979-10.68-3.245-13.385l0.811-7.301
		c-1.084-2.161-1.762-3.784-2.028-4.867c1.078-4.867,2.434-7.434,4.057-7.706l3.65,1.622l1.217-3.65l-0.811-5.273l-1.622,0.405
		v0.811c0,1.084-0.273,2.573-0.811,4.461c-3.517-0.811-5.273-1.755-5.273-2.839l-3.245,2.028l-3.245,0.405l0.811-26.365
		l-0.405-1.622h-1.623v1.217c0,3.245-0.545,12.307-1.622,27.175h-0.405c-1.895,0-3.112-1.622-3.65-4.867
		c-0.811,0-1.217,0.406-1.217,1.217v0.811l-3.65-1.622l-1.623,0.405l0.406,1.622l2.028,3.245l-4.461,4.056
		c-0.545-4.322-1.762-6.489-3.65-6.489h-0.406l-0.405-3.65c2.434-4.322,3.65-7.706,3.65-10.14v-0.811l-3.245-1.217
		c0.539-35.959,2.84-65.975,6.896-90.045l-2.028-3.245c3.245-0.266,4.867-6.217,4.867-17.846l1.623-0.406l3.244,1.623l-0.405-3.65
		l-2.028-3.245l3.245-2.028l-2.028-3.244c2.973-0.266,6.623-17.575,10.951-51.918l16.225-61.246
		c2.7-12.168,8.112-18.658,16.224-19.469l0.405,3.244h1.623L960.714,271.829z M916.098,549.671l4.867-0.406l0.405,1.623
		l-2.028,12.574c1.35,2.167,2.028,3.79,2.028,4.867l-1.622,0.405l2.028,3.245l-4.056,8.922c2.7,3.517,4.189,6.358,4.462,8.519
		l-3.245,0.405c-0.545-5.406-3.112-9.19-7.706-11.357v3.246l-2.84,0.405l-1.622-12.168l-1.622,0.407
		c0.266,1.355,0.405,3.11,0.405,5.272c0,2.434-0.139,5.272-0.405,8.518h1.622c-0.811,2.434-1.217,4.195-1.217,5.273l-3.245-1.218
		l1.217-3.65c0-1.076-0.405-1.622-1.217-1.622h-0.405v-12.168l-0.405-6.896l-4.057-4.867v-1.622l6.084-2.839
		c3.245,1.622,6.217,2.434,8.924,2.434h1.217l0.405,1.622l-4.867,0.811l1.217,12.169h1.217c2.434,0,3.784,1.488,4.056,4.46h1.623
		C916.769,561.433,916.364,552.649,916.098,549.671z M898.251,438.129l3.245-0.405v3.65h-0.406
		C899.468,441.374,898.517,440.296,898.251,438.129z M907.58,512.355l0.811,8.518l-3.244-1.217l-2.84,5.679l1.623-0.406
		c0-2.161,0.944-3.378,2.839-3.65l0.405,3.245l3.245-0.405v-0.811c0-1.622,0.811-3.784,2.434-6.49h-0.405
		c-1.895,0-2.979-1.483-3.245-4.462H907.58z M903.524,505.865l-0.811,6.895l3.244-0.405l-0.811-6.896L903.524,505.865z
		 M902.713,528.579l0.405,5.273l1.622-0.406l-0.405-4.867H902.713z M903.524,535.474l0.406,5.273l1.622-0.405l-0.405-4.867H903.524z
		 M903.93,558.188c0.266,1.622,0.405,2.978,0.405,4.056c0,1.895-0.272,3.517-0.811,4.867l3.245,1.217l-1.217-10.14H903.93z
		 M904.335,465.71c0.538,1.895,1.622,2.839,3.245,2.839h0.405l-0.405-3.245L904.335,465.71z M904.74,486.396l0.406,3.65l1.622-0.406
		l-0.405-3.244H904.74z M906.769,505.459v1.623c0.538,2.167,1.622,3.244,3.245,3.244h0.405l-0.405-5.273L906.769,505.459z
		 M907.58,528.173l0.405,3.245h1.622l-0.405-3.651L907.58,528.173z M908.797,494.508l-0.811,8.924
		c1.888-0.266,2.839-1.756,2.839-4.462v-0.811l-0.405-3.65H908.797z M908.391,585.768l3.245-0.405
		c0.266,1.084,1.078,2.705,2.434,4.867l-3.245,2.028l-2.028-3.244L908.391,585.768z M913.258,459.22v0.406
		c0,1.895-1.356,4.867-4.056,8.923l1.622-0.405l-1.217,3.65l0.406,1.622h3.244l-2.028-3.245c2.7-0.538,4.056-2.839,4.056-6.895
		v-2.434l-0.405-1.623H913.258z M910.825,480.717v3.245h1.623v-3.65L910.825,480.717z M914.475,546.426l0.406,6.896l-3.245,0.405
		l-0.405-3.245C911.497,548.048,912.581,546.698,914.475,546.426z M914.881,441.779l0.405,4.867v1.217
		c0,2.979-0.678,6.223-2.028,9.735l3.245-0.405v-0.811c0-1.888,0.538-6.35,1.622-13.385v-1.622L914.881,441.779z M914.475,500.998
		c0.266,1.895,0.406,4.195,0.406,6.895c0,2.707-0.14,5.679-0.406,8.924c1.889-0.266,2.84-1.756,2.84-4.462v-1.217l-1.217-10.14
		H914.475z M915.692,495.724v3.245h1.623v-3.65L915.692,495.724z M918.937,467.332c-1.084,8.923-1.622,14.196-1.622,15.819
		l0.405,1.622h1.622c1.078-8.923,1.623-14.196,1.623-15.819l-0.406-2.028L918.937,467.332z M918.937,593.071l3.245-0.406
		l0.811,6.895l-3.244,0.406L918.937,593.071z M919.748,411.358l0.811,8.518h1.623l0.811-8.923L919.748,411.358z M919.748,488.018
		l0.405,3.65h1.622l-0.405-3.65H919.748z M920.154,400.812l0.405,1.623c0.539,2.167,1.756,3.244,3.65,3.244l-0.405-2.028
		c-0.272-1.889-1.217-2.84-2.839-2.84H920.154z M920.965,517.627v2.028c0,1.895-0.273,3.65-0.811,5.273
		c0.266,1.084,0.811,1.623,1.622,1.623l-0.811,6.895l0.811,5.273l1.623-0.406c-0.273-1.622-0.406-3.378-0.406-5.273
		c0-4.322,0.406-9.595,1.217-15.819L920.965,517.627z M920.559,449.485l0.811,8.924l3.245-2.028c0,0.811,0.405,1.217,1.217,1.217
		h0.405l-0.405-3.245l-3.245,0.406v-1.623l1.217-3.65H920.559z M921.776,509.109l0.811,6.896l1.622-0.405v-1.623
		c0-1.888,0.266-3.65,0.811-5.273L921.776,509.109z M922.993,440.562v3.65l1.623-0.405v-3.245H922.993z M924.21,499.781l-1.217,3.65
		v2.028l1.623-0.405c0-1.078,0.405-2.839,1.217-5.273H924.21z M924.616,471.794v3.65l1.622-0.406v-3.244H924.616z M927.049,511.949
		l4.867-0.811l-0.811-4.867C929.749,506.27,928.399,508.166,927.049,511.949z M927.86,441.779l0.406,3.65l1.622-0.405l-0.405-3.245
		H927.86z M927.86,457.598v1.622l3.245-0.405v-1.622L927.86,457.598z M928.266,524.117l0.405,4.867h1.622l-0.405-5.273
		L928.266,524.117z M930.7,500.998l0.405,3.244h1.622l-0.405-3.65L930.7,500.998z M931.105,549.671v3.651l1.622-0.406v-3.244
		H931.105z M931.917,432.45v2.028l3.244-0.405v-1.623H931.917z M932.727,427.177l3.245-0.405l-0.405-3.245
		C933.672,424.072,932.727,425.289,932.727,427.177z M933.133,399.19l0.405,1.622h3.245l-0.406-2.028L933.133,399.19z
		 M933.539,495.319l3.245-0.405l-0.406-3.245c-1.895,0.545-2.839,1.622-2.839,3.245V495.319z M933.944,530.201l0.406,5.273
		l1.622-0.405l-0.405-4.867H933.944z M934.756,460.437l0.405,3.245h1.623l-0.406-3.65L934.756,460.437z M934.756,509.109l0.405,3.65
		c1.35,3.245,2.567,4.867,3.65,4.867c2.161-1.622,3.784-2.434,4.867-2.434l-0.405-1.622
		C943.273,511.41,940.434,509.921,934.756,509.109z M935.567,593.071c2.161,0,3.378,0.951,3.65,2.838v3.65l-3.245,0.406
		L935.567,593.071z M936.378,414.604l0.406,3.65l1.622-0.406l-0.405-3.244H936.378z M936.784,465.304l0.405,1.623l2.839-0.406
		v-1.622L936.784,465.304z M936.784,528.173l0.405,3.245h1.622l-0.405-3.245H936.784z M936.784,605.239l3.244-0.406l0.406,3.244
		v0.812c0,1.894-0.951,2.978-2.84,3.244L936.784,605.239z M937.189,453.136l0.405,3.245l3.245-0.405l-0.405-3.245L937.189,453.136z
		 M937.595,519.25v1.622h3.245v-2.028L937.595,519.25z M939.217,442.184l0.405,3.65l3.245-0.405l-0.406-3.65L939.217,442.184z
		 M939.217,503.431l0.405,5.273l1.622-0.405l-0.405-4.867H939.217z M939.623,554.132l0.811,6.896l1.622-0.405v-1.623
		c0-1.888,0.266-3.65,0.811-5.273L939.623,554.132z M941.245,384.183v1.622c0,2.706-0.405,7.573-1.217,14.602v1.622l1.623-0.405
		v-1.217c0-2.434,0.538-7.301,1.622-14.602l-0.405-1.622H941.245z M940.028,574.817l0.406,3.65l3.244-0.405l-0.405-3.65
		L940.028,574.817z M940.434,529.39v3.65l1.622-0.405v-3.245H940.434z M940.434,545.209l3.244-0.405l-0.405-3.245
		c-1.895,0.545-2.839,1.622-2.839,3.245V545.209z M940.84,566.3v1.623l3.245-0.406v-1.622L940.84,566.3z M941.245,490.857
		l0.406,3.65l1.622-0.405l-0.405-3.245H941.245z M941.245,569.545l0.406,3.651l1.622-0.405l-0.405-3.246H941.245z M976.128,324.559
		l0.405,3.244c1.078,0,1.623,0.545,1.623,1.623c-1.895,0.272-2.84,1.761-2.84,4.461v1.217l-3.244-1.622l-1.623,0.405v1.217
		c0,2.707-0.951,4.057-2.839,4.057l4.056,6.895l-6.49,0.406l2.028,3.244l0.405,2.028c-4.601,17.847-7.979,28.126-10.14,30.826
		c1.35,2.167,2.161,3.79,2.434,4.867c-2.707,0.273-4.867,5.818-6.49,16.63l0.406,4.867c-1.895,5.413-2.84,10.818-2.84,16.224v3.65
		h-0.405c-2.979,0-4.734-2.161-5.273-6.489h-1.623l-0.405,8.923l2.839-2.028c2.161,0,3.378,1.084,3.65,3.244v1.623l-3.244,0.405
		l-3.245-1.622c-0.811,2.434-1.217,4.328-1.217,5.678c1.35,2.167,2.161,3.79,2.434,4.867h1.622l-0.405-2.028
		c-1.356-1.889-2.028-3.511-2.028-4.867h1.623c2.161,0,3.378,0.951,3.65,2.839l-1.217,3.65c1.077,0,1.622,0.545,1.622,1.622h-1.622
		l2.028,3.245l0.406,3.65l-3.245,0.405c1.35,2.167,2.028,3.79,2.028,4.867h1.622v-1.217c0-3.244,1.078-7.706,3.245-13.385h-0.406
		c-0.811,0-1.217-0.538-1.217-1.622c1.889-1.35,3.511-2.028,4.867-2.028c-0.272-2.161-1.356-3.244-3.244-3.244h-0.406
		l26.365-106.269c-1.356-1.888-2.028-3.511-2.028-4.867L976.128,324.559z M942.057,485.585l0.405,3.65l1.623-0.405
		c3.244-8.379,4.867-13.651,4.867-15.819v-0.406c-4.601,1.895-6.896,5.679-6.896,11.357V485.585z M942.057,517.222l0.405,3.245
		h1.623l-0.406-3.65L942.057,517.222z M942.462,581.713l0.406,5.272l1.622-0.405l-0.405-5.272L942.462,581.713z M942.868,506.676
		l0.405,3.245h1.622l-0.405-3.65L942.868,506.676z M943.273,590.231l0.405,3.65l1.623-0.406l-0.406-3.244H943.273z M946.518,402.841
		c-1.357,6.49-2.028,10.14-2.028,10.951c1.622-0.266,3.105-2.161,4.462-5.679l-0.811-5.273H946.518z M944.896,369.987l0.406,3.245
		c1.888,0,2.839-0.945,2.839-2.84v-0.811L944.896,369.987z M945.302,469.36l3.65,1.622l0.405-12.574
		C947.462,458.681,946.112,462.332,945.302,469.36z M945.302,516.816l0.405,1.622l3.245-0.405l-0.406-1.623L945.302,516.816z
		 M947.735,413.387l0.405,3.244h1.622l-0.405-3.65L947.735,413.387z M948.952,392.295v3.245c2.161-0.266,3.244-1.483,3.244-3.65
		L948.952,392.295z M948.952,582.525l0.405,2.026l3.245-0.405l-0.406-2.029L948.952,582.525z M949.763,591.448l-0.811,6.895
		l4.867-0.405c-1.357-1.889-2.167-4.19-2.434-6.896L949.763,591.448z M951.386,512.355l2.028,3.245l-1.217,3.65l3.65,1.622
		l-1.217-10.546L951.386,512.355z M952.603,538.719l-0.811,22.714l3.245,1.217c-0.545-5.133-0.811-12.707-0.811-22.714v-1.623
		L952.603,538.719z M952.603,522.901v3.65c0,2.706-0.14,5.545-0.406,8.518c2.161-5.945,4.057-9.057,5.679-9.329l-0.405-3.65
		l-3.245,2.434c0-1.078-0.405-1.622-1.217-1.622H952.603z M954.225,492.885l-0.405,8.923l0.405,3.245h1.622v-1.622
		c0-3.511,0.811-5.406,2.434-5.679c-1.356-2.161-2.167-3.784-2.434-4.867H954.225z M954.63,370.392l0.406,5.273
		c1.888-0.266,3.917-2.84,6.084-7.707l-3.65-1.217c-1.895,0.545-2.84,1.623-2.84,3.245V370.392z M956.253,480.312l-0.811,8.923
		l0.405,1.622h1.623l0.811-8.923l-0.405-1.622H956.253z M955.847,475.445l0.406,3.244l3.244-0.405l-0.405-3.245L955.847,475.445z
		 M956.658,359.847l0.811,5.273l1.622-0.405v-0.811c0-1.078,0.266-2.567,0.811-4.462L956.658,359.847z M959.903,451.919v1.217
		c0,3.79-0.951,10.546-2.84,20.281l3.245-0.405c0-2.161,0.405-8.651,1.217-19.469v-1.623H959.903z M957.064,532.635v2.028
		l3.245-0.405v-1.622H957.064z M957.875,354.573l0.405,3.245h1.623l-0.406-3.65L957.875,354.573z M958.687,438.129v2.028
		l3.244-0.406l-0.405-2.028L958.687,438.129z M962.337,600.372h1.622l2.028,20.686l2.839,11.762c-1.084,0-2.573,0.811-4.462,2.434
		l-2.028-3.244l3.244-0.406c-3.79-15.413-5.951-25.147-6.49-29.204L962.337,600.372z M959.903,499.375l0.405,3.245h1.622
		l-0.405-3.65L959.903,499.375z M961.12,277.103v1.217c0,1.084-0.273,2.434-0.811,4.056l3.245-0.405l-0.811-4.867H961.12z
		 M963.148,437.723c-1.084,6.223-1.622,10.14-1.622,11.762v0.811c1.622-0.266,2.839-3.917,3.65-10.951l-0.405-1.622H963.148z
		 M963.148,546.02l3.245-0.406l0.405,3.651l2.84-2.028l0.405,3.244v0.406c0,1.622-1.356,3.384-4.056,5.273l-2.028-3.245
		L963.148,546.02z M964.771,435.695h1.622l0.811-7.301c-1.623,0.272-2.434,1.489-2.434,3.65V435.695z M968.015,529.795l0.406,3.651
		h-3.245C965.176,531.285,966.121,530.068,968.015,529.795z M973.288,391.078l-1.217,7.301h-1.217l-3.65-1.217l0.405,1.623
		l2.434,10.14l-1.217,3.65l3.245-0.405c0.266-9.735,1.755-16.896,4.461-21.497L973.288,391.078z M969.232,480.717l1.623-0.405
		l0.405,3.65l-0.405,8.923l-3.245,0.405L969.232,480.717z M969.232,384.588c0,1.356-0.405,3.112-1.217,5.273l3.245-0.405
		l-0.405-4.867H969.232z M974.099,494.102h1.623v1.622c-0.545,1.895-0.811,3.384-0.811,4.462v0.811l-6.489,0.811l-0.406-3.65
		C969.638,498.158,971.666,496.808,974.099,494.102z M968.015,576.846l3.245-0.405v2.026l-2.839,0.407L968.015,576.846z
		 M972.882,466.521l0.811,6.896h-3.245l-0.405-3.245C970.043,467.738,970.988,466.521,972.882,466.521z M971.26,340.783l1.622-0.405
		l0.406,3.65h-1.623L971.26,340.783z M972.477,370.392l3.65,1.217l-0.405-3.65h1.622l0.405,3.245h3.245
		c2.7-15.679,6.217-23.658,10.546-23.931l-2.434-8.518h-1.623c-4.601,14.336-6.895,23.526-6.895,27.581v1.217l-3.245,0.405
		l-0.405-1.622v-0.405c0-3.784,2.294-13.246,6.895-28.393l0.811-7.301C983.562,330.782,979.506,344.167,972.477,370.392z
		 M972.477,385.805c0.538,2.167,1.622,3.245,3.245,3.245h0.405l-0.405-3.65L972.477,385.805z M976.533,376.882v0.811
		c0,1.084-0.405,2.574-1.217,4.462l0.406,1.622h1.622v-1.217c0-1.077,0.266-2.434,0.811-4.056v-2.028L976.533,376.882z
		 M976.533,299.816l0.406,1.623l3.244-0.406l-0.405-1.622L976.533,299.816z M976.939,317.258c0.539,2.167,1.755,3.244,3.65,3.244
		l-0.406-3.65L976.939,317.258z M982.212,414.604l0.405,3.244v0.811c0,1.895-0.951,2.979-2.839,3.245l-0.405-3.65
		C979.373,416.093,980.316,414.876,982.212,414.604z M985.862,323.342v3.244h1.622v-3.65L985.862,323.342z M986.673,318.069
		l0.405,3.245h1.622l-0.405-3.65L986.673,318.069z M989.513,282.781l3.245-0.405l0.405,3.245l-3.245,0.405L989.513,282.781z
		 M1002.086,307.523l3.245-0.406l0.405,3.245l-3.244,0.405L1002.086,307.523z"/>
	<path style="fill:#E74C3C;" d="M1015.876,404.463h2.028c1.888,0,3.105,2.574,3.65,7.707l2.839-2.028
		c2.161,0,3.511,2.167,4.057,6.489l1.622-0.405c-0.272-1.078-0.405-2.161-0.405-3.245c0-1.888,0.405-3.511,1.217-4.867h-0.812
		c-1.622,0-2.573-0.944-2.839-2.839v-1.622l8.112-0.811c2.7,3.517,5.678,5.273,8.924,5.273h1.217c1.888,0,7.028,2.84,15.413,8.518
		h1.623c3.244,0,5,1.357,5.272,4.057l3.246-1.623c2.161,0,3.377,0.951,3.651,2.84c-1.084,0-1.623,0.545-1.623,1.622
		c5.678,1.356,8.651,3.79,8.924,7.301c1.35,14.874,3.917,30.421,7.706,46.645l3.246-0.405c16.49-38.393,27.581-57.862,33.259-58.407
		c4.596-7.567,6.896-12.168,6.896-13.79l3.244-0.406l0.406,3.245l10.545-9.329h1.623l0.405,3.245l-2.838,5.273l3.244-0.405v-0.811
		c0-3.784,3.511-6.084,10.545-6.895c0.539,4.601,5,6.895,13.385,6.895c1.623,0,3.379-0.133,5.273-0.405
		c3.244,1.622,5.133,4.734,5.678,9.329l3.246-2.028c8.112,1.356,13.79,4.601,17.035,9.735l0.405,1.622l-1.622,3.65l3.244-0.405
		l0.406,1.622l-1.623,3.245l4.867-0.405v0.405c0,5.413-7.441,17.441-22.309,36.099c-1.355,0-2.301,2.167-2.838,6.489l-6.49-2.434
		v1.217c0,3.517-0.951,5.413-2.84,5.679l-0.405-3.245l1.621-3.65l-1.621,0.405c-3.517,2.979-5.818,7.441-6.896,13.385l-1.622,0.406
		l0.405,4.867l3.246-0.406l6.084-5.273l1.621-0.405l0.406,4.867c-3.244,0.272-4.867,0.951-4.867,2.028
		c1.35,2.167,2.028,3.79,2.028,4.867c-3.517,0.273-5.272,2.707-5.272,7.301v2.84l-3.246,0.405l-0.405-1.622l1.622-3.245
		l-4.867,0.405v0.406c0,2.434-1.895,5.14-5.678,8.112c1.35,0,3.106,1.49,5.273,4.462c0,2.167-1.084,3.384-3.246,3.651l-3.244-1.217
		v1.217l2.028,3.245h-1.621l2.028,3.244v1.623c-1.895,6.762-3.111,10.14-3.651,10.14l1.623,3.245l0.405,3.244
		c-6.489,0.545-11.223,7.979-14.196,22.309c-8.658,21.636-14.063,32.449-16.225,32.449l-1.621,0.405l2.028,2.84v2.434
		c0,1.623-0.951,2.573-2.84,2.84l-0.405-4.867h-1.623l0.406,4.867c1.077,0,1.622,0.545,1.622,1.622
		c-3.244,0.273-6.084,3.79-8.518,10.547v3.244l2.029,3.244c-2.707,0.266-5.007,4.323-6.896,12.168h0.406
		c0.811,0,1.217,0.406,1.217,1.217c-1.894,0.539-2.84,1.623-2.84,3.246v0.405l0.406,3.246l2.84-2.029h1.621v0.406
		c0,1.623-1.894,3.784-5.678,6.49c-0.273-0.812-0.678-1.217-1.217-1.217h-0.406c0,1.077-0.405,2.7-1.217,4.867l3.246-0.406v1.623
		c-4.329,3.784-7.574,10.139-9.734,19.063l0.405,1.623l1.623-0.406c1.35-4.328,2.027-7.707,2.027-10.141v-1.217l3.246-0.405v4.461
		c0,6.756-2.84,10.407-8.518,10.951l0.405,3.244l3.246-0.405v0.405c0,2.973-2.029,4.729-6.084,5.273l0.405,1.623l2.434,7.706
		c-2.978,0.266-4.734,5.273-5.272,15.008c1.35,2.161,2.028,3.784,2.028,4.867l-3.245,0.406l0.405,3.244l3.246-0.406l0.405,4.867
		l-3.244,0.406l-0.406-3.244h-1.217v3.65c0,9.462-0.951,15.413-2.838,17.846l1.217,16.225l-3.246,0.405l-0.811-8.112l-6.084,3.65
		c0.266,2.973,1.756,4.461,4.461,4.461h0.812v1.623c0,2.973-1.217,6.35-3.65,10.141l0.811,8.112l-3.244,0.406l-2.434-24.336h-1.623
		l1.217,11.356l-1.623,0.406c-1.622-0.811-2.978-1.217-4.055-1.217h-0.812v3.244c0.266,0.812,0.812,1.217,1.623,1.217h0.406
		l-1.217,3.651l1.217,14.197h3.244l-0.811,8.112l0.811,8.112h-1.623c-1.355,0-4.461-4.055-9.328-12.168l-3.245,2.029l2.028,3.244
		l0.406,3.244h-3.246l-0.811-8.112c-2.434,2.434-4.461,3.784-6.084,4.057l2.434,10.951l-3.244,0.405l-2.84-15.819h-1.623v3.246
		h-2.434c-1.621,0-2.434-0.951-2.434-2.84l-0.405-4.867c1.622,0,2.434-1.084,2.434-3.244v-1.623l3.244-0.406
		c0.539,3.784,2.973,5.679,7.301,5.679h1.623l-2.029-3.246v-2.028c0-0.811,0.406-1.217,1.217-1.217l-1.622-3.244l-1.623-14.197
		l2.84-5.272l-0.406-4.867l-3.65-4.463l0.811-6.895c-1.355-1.894-2.028-3.384-2.028-4.461l3.245-2.029
		c-0.272-1.084-0.951-1.622-2.028-1.622c0.266-8.113,1.35-13.525,3.244-16.225l-4.867-2.84l-4.461,6.896l0.811,6.489l2.029,2.84
		c-2.167,0.539-3.246,1.756-3.246,3.65l0.406,3.244l2.84,10.951c-1.896,0.266-2.84,1.756-2.84,4.463v0.811
		c0,1.077,0.672,2.7,2.028,4.867c-0.272,2.973-0.405,5.539-0.405,7.707v3.65c1.077,1.888,1.755,3.511,2.028,4.867l-3.244,1.622
		l-3.246-1.217l0.406,3.246h-1.623l-3.245-15.819l-0.811-9.735l4.867-0.406l-0.812-4.867l-2.838,2.028h-1.623l-0.811-6.489
		l-3.246,0.405l-0.405,9.735l-1.623,0.406l-0.406-4.867h-1.622c-1.896,0.266-2.84,1.756-2.84,4.461v0.812h-1.622l-0.811-6.49
		c5.133-0.545,7.707-2.84,7.707-6.895v-0.406l3.244,1.623l1.623-0.406v-3.65c0-4.057,0.811-6.084,2.434-6.084l0.405,4.867
		l-0.811,8.112c1.623-0.272,3.106-6.489,4.461-18.657c1.078,0,1.623-0.546,1.623-1.623l-1.217-12.979l-1.623,0.405
		c-0.272,9.735-1.489,14.735-3.651,15.008h-1.217l-0.811-4.867h-1.623l-0.405,10.141h-3.246c1.889-24.609,4.057-41.645,6.49-51.106
		h1.623l0.405,3.244c-1.894,11.084-2.838,18.385-2.838,21.903v1.217c2.434-0.273,3.917-7.979,4.461-23.12l1.217-0.406
		c0.266,1.078,1.077,2.7,2.434,4.867c-0.811,1.623-1.217,3.246-1.217,4.867v1.623l0.406,1.623h1.621
		c0.539-11.091,2.162-16.769,4.867-17.036c1.078,0,1.623,0.538,1.623,1.622l3.244-2.028c2.162,0.811,3.784,1.217,4.867,1.217v1.623
		l-6.084,2.434c1.623,5.944,3.379,8.922,5.273,8.922h2.028c1.078-10.545,1.623-16.629,1.623-18.252l-0.406-1.622l-1.622,0.405
		l0.405,3.246h-3.244v-1.217c0-2.98,0.672-7.441,2.027-13.385l-0.405-1.623h-1.623v0.811c0,2.7-1.084,7.973-3.245,15.819h-0.406
		c-2.978,0-4.734-2.572-5.273-7.706l-1.622,0.405v1.623c0,2.161-0.812,3.378-2.434,3.65h-1.623l0.811-8.112h-3.244l-0.811,10.139
		h-1.623v-1.622c0.266-4.057,0.406-7.301,0.406-9.735v-3.246l3.244-0.405v3.244h1.623l4.461-3.65l1.623-0.406l0.405,1.623
		c-0.811,2.161-1.217,3.784-1.217,4.867c4.867-3.79,7.301-6.084,7.301-6.895c-1.895-5.14-4.055-7.707-6.489-7.707h-0.406v-3.244
		c0-3.517,0.539-6.763,1.623-9.735v-1.623h-1.623c-2.978,10.811-4.461,17.708-4.461,20.686v0.811l-3.246,0.406v-1.623
		c0.539-6.223,2.973-15.146,7.301-26.77c0.266-6.489,3.65-16.085,10.141-28.798l3.244,1.623l1.623-0.406l-0.406-4.867l-3.244,0.406
		l-0.406-3.246c1.889-2.7,2.84-5,2.84-6.895h1.623c1.077,0,1.621,0.545,1.621,1.623c4.323-2.7,7.434-4.19,9.33-4.463l0.405,4.867
		l-3.244-1.217l-1.217,3.246v1.622l3.244-1.622l1.623-0.406l-5.273,13.791v1.622l1.623-0.405c2.7-10.001,5-15.008,6.895-15.008
		l3.246,1.217l-0.406-4.867l-3.244,0.406l3.651-11.762v-1.624h-1.623c-0.273,5.413-1.623,8.253-4.057,8.519h-1.621l1.217-3.244
		h-1.623v0.405c0,0.812-0.406,1.355-1.217,1.622l-0.406-3.243c2.973-7.841,5.273-11.897,6.896-12.168
		c0,1.084,0.538,1.622,1.622,1.622l-0.405-4.867c-6.224,1.622-9.33,2.98-9.33,4.055c1.35,1.896,2.029,3.384,2.029,4.463
		l-3.246-1.217v0.812c0,2.167-1.217,6.356-3.65,12.573l-3.244,0.406v-1.623l10.951-38.533c-5.678,9.735-11.091,22.176-16.225,37.316
		c-0.811,0-2.167,1.761-4.055,5.273l1.622,3.244l0.406,1.623l-3.65-1.217l-1.217,3.244l4.867-0.406
		c-5.678,16.769-9.195,25.282-10.545,25.553c-1.357-1.894-2.167-4.055-2.434-6.489h-1.623c-1.084,6.755-1.623,10.951-1.623,12.573
		v0.812l-3.244,0.405v-1.217c0-2.167,0.672-5.678,2.028-10.545l-2.028-2.84l6.895-12.168v-3.244l-3.244,0.406l-0.406-1.623
		c0.266-2.161,1.217-3.378,2.84-3.651l3.651,1.217c0.266-4.323,1.077-6.623,2.434-6.895l-2.434-7.707v-3.246
		c9.19-21.357,13.791-34.609,13.791-39.748v-0.811c-23.799-22.98-37.183-49.89-40.156-80.716l1.623-0.406
		c-2.434-4.867-5.007-14.329-7.707-28.392c0.811-6.756,2.161-10.14,4.057-10.14l-2.028-3.245L1015.876,404.463z M1016.687,720.837
		l3.244-0.406l0.406,3.244l-3.245,0.406L1016.687,720.837z M1027.638,647.828h3.246c-1.357,7.028-2.029,10.812-2.029,11.356v1.623
		h1.623l-0.406-4.867l3.246-0.406l0.405,3.246c-5.412,4.055-8.112,9.735-8.112,17.035v3.244c-1.356,0.266-2.028,4.727-2.028,13.385
		h-2.839v-1.217C1020.743,686.087,1023.038,671.618,1027.638,647.828z M1023.582,742.74h3.245l0.405,4.461l-3.244,0.406
		L1023.582,742.74z M1027.233,727.732l0.405,3.244l-3.244,0.406C1024.394,729.215,1025.338,727.998,1027.233,727.732z
		 M1026.016,696.905h3.245c0,1.889,1.077,2.84,3.244,2.84l0.406,1.623c0,2.161-1.084,3.244-3.244,3.244
		c0-0.811-0.406-1.217-1.217-1.217h-0.406l0.406,3.244l2.028,2.84l-4.867,0.811l-0.405-1.622L1026.016,696.905z M1025.61,419.876
		v1.622h3.244v-1.622H1025.61z M1025.61,760.586l2.84-0.406l0.405,1.623l-3.244,0.406V760.586z M1026.016,714.753h3.245l0.406,3.244
		h-3.245L1026.016,714.753z M1034.534,632.82c0,1.623,1.077,2.434,3.244,2.434h1.623c-0.812,5.678-2.167,8.518-4.057,8.518
		l-1.623,0.406l-0.405-6.49h-1.623l-0.406-1.623C1031.555,633.897,1032.638,632.82,1034.534,632.82z M1034.128,647.422l1.623-0.406
		l0.405,3.246l-1.622,0.405L1034.128,647.422z M1035.345,712.319l0.406,3.244l3.244-0.406l-0.406-3.244L1035.345,712.319z
		 M1035.751,717.186l0.811,6.489h1.623l-0.812-6.489H1035.751z M1036.562,619.435h1.217l0.406,3.244h-1.623V619.435z
		 M1039.806,757.746c0.539,1.889,1.623,2.84,3.246,2.84h0.405l-0.405-3.244L1039.806,757.746z M1041.023,769.104
		c1.078,1.623,1.889,4.19,2.434,7.707h1.623l-1.217-9.735L1041.023,769.104z M1046.296,706.64l-0.406-3.244h-3.244v1.623
		c0,1.888-0.273,3.651-0.811,5.272h0.811c2.7,0,4.19,0.945,4.461,2.84c-1.084,0-1.621,0.539-1.621,1.623
		c1.077,0,1.621,0.405,1.621,1.217l3.246-1.623l5.272,2.84v-1.623c0-3.244,1.35-5.007,4.057-5.273
		c-1.084-1.084-2.028-5.412-2.84-12.979L1046.296,706.64z M1043.863,628.359h1.623v3.244h-1.623V628.359z M1044.673,791.413v1.622
		l3.246-0.405v-1.623L1044.673,791.413z M1049.541,605.239l0.406,4.867l1.623-0.406l-0.406-4.867L1049.541,605.239z
		 M1049.947,694.878l0.406,3.244c1.888-1.355,3.51-2.167,4.867-2.434l-0.406-1.622L1049.947,694.878z M1052.38,632.414v1.623
		c0,1.889-0.406,3.65-1.217,5.273h1.217c2.161,0,4.594,0.811,7.301,2.434l-0.406-4.867l3.246-0.406l0.405,4.867
		c1.889-0.273,2.84-1.217,2.84-2.84v-0.811l-0.406-3.244h-1.621c-1.896,0-3.517-0.273-4.867-0.812l-4.867,0.406v-1.623H1052.38z
		 M1053.191,793.846v3.244h1.623v-3.244H1053.191z M1053.597,647.016l0.406,3.246l3.244,1.217c-1.084-1.896-1.761-3.384-2.028-4.463
		H1053.597z M1054.408,653.506l0.406,4.867h1.623l-0.406-4.867H1054.408z M1060.087,610.511v2.029c0,4.055-0.812,7.301-2.434,9.735
		l0.405,1.622l2.84-2.028h1.623c-0.546,3.244-1.357,5-2.434,5.273c-1.896-0.812-3.384-1.217-4.463-1.217h-0.811l0.811,6.489
		c0.812-0.272,1.217-0.811,1.217-1.622v-0.406l3.65,1.217h1.623v-0.811c0-1.623,0.944-2.574,2.84-2.84l-2.029-2.84l6.084-7.301
		l0.406,4.867h1.623v-1.622c0-1.889,0.266-3.512,0.811-4.867v-1.623h-1.623l0.406,3.244h-1.623
		C1068.465,614.028,1065.493,611.595,1060.087,610.511z M1056.437,643.365l0.405,3.246h1.623l-0.406-3.246H1056.437z
		 M1060.087,644.988c1.077,0.539,2.028,5.273,2.838,14.196l3.246-2.028v3.244l-2.434,6.896l0.405,3.244h1.623
		c2.973-10.818,4.461-17.442,4.461-19.875v-0.405l-0.405-3.246l-1.623,0.406l0.811,4.867h-3.244l-2.434-7.707L1060.087,644.988z
		 M1060.492,788.167l0.406,1.623l3.244-0.406l-0.405-1.622L1060.492,788.167z M1061.304,760.586l0.811,8.112l1.623-0.405
		l-0.812-8.113L1061.304,760.586z M1068.605,596.721v3.244h1.621v-3.244H1068.605z M1068.605,632.82l0.405,3.244l1.623-0.405
		l-0.406-3.246L1068.605,632.82z M1069.416,642.148l0.406,3.246h1.621l-0.405-3.246H1069.416z M1069.416,725.298l0.406,3.244h1.621
		l-0.405-3.244H1069.416z M1069.416,745.173l0.406,3.244l1.621-0.406l-0.405-3.244L1069.416,745.173z M1071.039,659.996l0.405,3.244
		h1.623l-0.406-3.244H1071.039z M1072.256,621.058l0.405,2.838h1.623l-0.406-3.244L1072.256,621.058z M1073.472,736.656v0.811
		c0,1.077-0.273,2.434-0.812,4.057v1.622l1.623-0.405c0-1.084,0.406-2.707,1.217-4.867l-0.406-1.623L1073.472,736.656z
		 M1073.877,772.348h1.623l0.406,2.84l-1.623,0.406L1073.877,772.348z M1074.283,809.665l3.244-0.406
		c0,0.811,0.812,4.057,2.434,9.735l-3.245,0.406C1076.717,818.587,1075.906,815.343,1074.283,809.665z M1074.689,627.142
		l3.244-0.406l-0.406-3.244c-1.894,0.538-2.838,1.622-2.838,3.244V627.142z M1074.689,747.607c1.35,1.888,2.161,4.055,2.434,6.489
		h1.621l-0.811-6.489H1074.689z M1075.906,741.117v1.623l4.867-0.406c0-2.167,0.944-3.384,2.838-3.651l3.246,1.217v-1.623
		c-1.357-1.895-2.029-3.384-2.029-4.461c0.812,0,1.217-0.406,1.217-1.217v-0.406h-1.622l1.622-3.244l-0.405-1.623
		c-2.167,0-4.463,4.463-6.896,13.385L1075.906,741.117z M1076.311,713.536l0.406,3.244l1.623-0.406l-0.406-3.244L1076.311,713.536z
		 M1076.311,729.759l0.406,3.246l1.623-0.406l-0.406-3.244L1076.311,729.759z M1076.717,734.627l0.406,3.246l1.621-0.406
		l-0.405-3.244L1076.717,734.627z M1081.178,765.047l0.406,3.246h1.623l-0.406-3.246H1081.178z M1081.99,789.384h1.621
		c0,1.078,0.672,2.567,2.029,4.463l-3.246,0.405L1081.99,789.384z M1082.395,742.334l0.406,4.461h1.623l-0.406-4.867
		L1082.395,742.334z M1084.424,678.248l-1.217,3.65l4.867,2.838l1.621-3.65l-0.405-3.244l-3.246,2.028
		C1086.045,678.786,1085.501,678.248,1084.424,678.248z M1083.612,586.985l0.406,3.246l4.867-0.406l-0.406-3.244L1083.612,586.985z
		 M1085.641,570.762c0,1.084-0.406,2.705-1.217,4.867v1.622h1.622c0-1.076,0.406-2.838,1.217-5.272v-1.217H1085.641z
		 M1085.235,671.758l0.406,3.244c1.888-0.272,2.838-1.217,2.838-2.838v-0.812L1085.235,671.758z M1090.102,669.73l0.406,6.489
		l1.622-0.405l-0.405-6.084H1090.102z M1098.62,488.018v0.811c0,1.895-0.811,4.461-2.434,7.706l0.406,1.622l1.622-0.405v-0.811
		c0-1.888,0.812-4.461,2.434-7.706l-0.405-1.622L1098.62,488.018z M1098.62,624.708l0.406,3.244h1.622l-0.405-3.244H1098.62z
		 M1102.676,479.5l0.811,4.867l1.623-0.405v-0.406c0-1.622,2.971-9.328,8.922-23.12
		C1112.948,460.437,1109.165,466.794,1102.676,479.5z M1103.893,508.704l0.405,3.245l1.623-0.406l-0.406-3.244L1103.893,508.704z
		 M1109.165,494.914l0.406,3.244c1.889,0,2.84-0.811,2.84-2.434v-0.811H1109.165z M1109.977,622.274v1.622l3.244-0.405v-1.623
		L1109.977,622.274z M1110.382,507.893l0.406,3.245h1.623l-0.406-3.245H1110.382z M1111.194,617.001l0.405,3.244h1.623l-0.406-3.244
		H1111.194z M1111.599,587.797l0.406,3.244h1.623l-0.406-3.244H1111.599z M1117.278,477.878l-5.273,13.79l0.406,1.622l1.621-0.405
		v-0.405c0-1.35,1.756-5.679,5.273-12.98l-0.406-1.622H1117.278z M1112.411,613.757l3.244-0.406l-0.406-3.244
		c-1.894,0.545-2.838,1.622-2.838,3.244V613.757z M1128.229,589.42c0,2.434-0.406,4.601-1.217,6.489h1.621l1.217-3.244l-0.405-3.244
		H1128.229z M1130.663,582.525l0.405,3.243c1.889,0,2.84-0.809,2.84-2.434v-0.809H1130.663z M1137.152,565.895v0.811
		c0,1.356-0.811,3.244-2.434,5.677v1.624c2.7-0.266,4.057-2.029,4.057-5.274v-3.244L1137.152,565.895z M1141.614,511.543
		l0.405,1.623l3.246-0.406l-0.406-1.622L1141.614,511.543z M1145.67,519.25c1.889-0.266,2.84-1.217,2.84-2.84v-2.434
		c-1.895,0.545-2.84,1.623-2.84,3.245V519.25z M1164.734,494.508l-1.217,6.896l3.244-0.405c0-1.078,0.406-2.7,1.217-4.867
		L1164.734,494.508z M1178.119,465.71l0.405,3.244l4.867-0.405c-0.272-1.888-1.217-2.839-2.838-2.839H1178.119z M1179.336,478.689
		l3.244-0.405l0.406,3.245l-3.246,0.405L1179.336,478.689z M1182.174,457.192l0.812,6.489c2.161,0.811,3.784,1.217,4.867,1.217
		l1.217-3.65h-0.406c-1.894,0-2.978-1.483-3.244-4.462L1182.174,457.192z"/>
	<path style="fill:#E74C3C;" d="M1310.603,232.532h4.662c3.498,0.392,5.246,1.949,5.246,4.664v2.914
		c0,1.558-0.974,2.332-2.914,2.332c1.941,3.115,2.914,5.638,2.914,7.578c3.106,0,4.664-1.749,4.664-5.246
		c13.207,1.166,19.819,4.472,19.819,9.91l9.91-7.578c0,8.552,5.045,12.824,15.156,12.824v4.663c1.548,0,2.332-0.774,2.332-2.332
		c10.492,2.724,22.924,15.156,37.306,37.307c-4.281,13.216-7.578,19.82-9.91,19.82c0-1.548-0.784-2.332-2.332-2.332l2.332,12.242
		c0,14.773-9.136,60.24-27.396,136.402l2.332,5.246c-1.558,3.115-2.332,5.638-2.332,7.578l2.332,4.663
		c-1.558,5.055-3.115,7.578-4.664,7.578l2.332,5.246v6.995c0,1.949-0.784,2.914-2.332,2.914l2.332,4.664
		c0,2.331-2.533,4.863-7.578,7.577c1.939,6.612,6.994,9.91,15.156,9.91h4.662l7.578-5.246h2.332v2.914l-2.332,4.664
		c1.548,0,2.332,0.783,2.332,2.332c-3.114,0.783-4.664,2.532-4.664,5.246v2.332h9.91v-4.664l4.664,2.332
		c8.543-4.272,12.824-7.578,12.824-9.91l19.819,4.664c1.548-3.106,2.332-5.438,2.332-6.995h2.332v6.995
		c0,1.557-4.865,6.612-14.573,15.156h2.332c11.658-2.715,17.488-13.407,17.488-32.06c9.709-115.026,22.15-177.206,37.306-186.533
		h12.242c14.763,13.215,23.899,19.819,27.397,19.819c0-1.548,0.774-2.332,2.33-2.332c8.543,5.829,12.824,10.693,12.824,14.573
		l4.664-2.331c23.317,20.985,34.975,32.643,34.975,34.975c0,8.552-2.533,13.407-7.578,14.573c1.548,3.498,2.332,6.03,2.332,7.578
		c-2.332,6.612-4.865,9.91-7.578,9.91c1.939,3.115,2.914,5.638,2.914,7.578l-9.91,22.151v2.914l4.664,6.995l-9.91,7.578
		c1.548,3.115,2.332,5.637,2.332,7.577c0,6.995-1.558,26.814-4.664,59.458h-5.246v-24.482l2.914-5.246h-5.246v17.487l-2.332,17.488
		c1.548,0,2.332,0.783,2.332,2.332l5.246-2.332h2.332v2.332c0,1.557-0.784,2.331-2.332,2.331c0,1.949,0.774,2.915,2.332,2.915
		l-2.332,16.904v25.066c0,3.497-1.748,5.246-5.246,5.246c0-1.939-0.784-2.914-2.332-2.914c0,5.447-2.531,13.025-7.578,22.734v2.332
		h-2.332l-7.577-5.246c-1.558,2.332-2.332,8.161-2.332,17.488h-2.916c-4.662-25.257-6.994-38.472-6.994-39.639l4.664-2.332h7.578
		v4.664c0,1.949-0.784,2.914-2.332,2.914c1.548,3.115,2.332,5.447,2.332,6.995h2.33c0-4.664,1.749-6.995,5.246-6.995
		c0.383,3.115,1.941,4.664,4.664,4.664v-7.578c-3.888,0-7.969-3.297-12.24-9.91v2.332c-3.115-1.548-5.639-2.332-7.578-2.332v-4.662
		h5.246l-7.578-22.735l2.332-14.573l-2.332-15.156c1.548-6.604,2.332-12.432,2.332-17.488l-4.664-2.331
		c-1.558,15.939-7.386,27.597-17.488,34.975c-3.115-1.94-5.637-2.915-7.578-2.915v-19.819l-9.91-2.332l5.246,7.578v2.332
		l-5.246,7.578h5.246l-2.914,9.91c1.941,8.943,2.914,15.547,2.914,19.819h-2.914l-9.91-7.578c0,1.949-0.784,4.472-2.332,7.578
		c0,1.558,0.774,2.331,2.332,2.331l-2.332,9.91l2.332,17.488c-2.332,0-4.863,2.531-7.578,7.578
		c3.498,5.447,5.246,10.492,5.246,15.156h-2.332l-7.578-5.246v5.246h-2.33c-3.498,0-5.246-1.749-5.246-5.246v-4.664
		c0-1.941,0.774-2.914,2.33-2.914c-1.556-2.715-2.33-6.02-2.33-9.91c-22.151,8.553-33.619,14.382-34.393,17.488v2.332l4.664-2.332
		c3.497,0.391,5.246,2.14,5.246,5.246v4.664h-15.156c-3.889,3.497-7.195,5.246-9.91,5.246l-32.06-15.156h-7.578v-4.664h-5.246
		c0,3.115-0.784,4.664-2.332,4.664c-3.115,0-10.492-2.523-22.151-7.578l-5.246,2.914c-27.98-14.372-41.969-27.779-41.969-40.222
		c-2.332,0-7.386-4.854-15.156-14.573l2.332-5.246c-9.718,0-17.105-23.116-22.151-69.367c2.715-43.135,7.77-64.703,15.156-64.703
		v-2.332h-5.246v-2.332c5.047,0,7.578-6.603,7.578-19.819l-2.332-15.156l4.664-2.332l-4.664-9.909
		c3.106-8.935,5.438-19.82,6.995-32.644l5.246,2.915h2.332v-2.915h-4.664c0-13.206,3.297-19.819,9.91-19.819v-4.664h-5.246v-2.914
		c4.271,0,10.101-16.513,17.488-49.547C1300.492,243.416,1305.547,236.03,1310.603,232.532z M1275.628,441.216v4.663h2.332v-4.663
		H1275.628z M1277.959,421.397v17.488h2.332v-17.488H1277.959z M1285.537,378.844c-1.558,13.608-3.307,21.96-5.246,25.066
		l5.246,2.331l2.332-22.151v-5.246H1285.537z M1287.869,364.271v12.241h2.332l2.914-12.241H1287.869z M1290.201,359.025v2.331h5.246
		v-2.331H1290.201z M1300.111,307.145v9.91c-4.664,18.654-6.995,31.095-6.995,37.307v2.332h2.332l9.91-49.548H1300.111z
		 M1303.025,398.663v7.578h2.332v-7.578H1303.025z M1305.357,386.422v5.246h2.33v-5.246H1305.357z M1310.603,366.603v2.331h4.662
		v-2.331H1310.603z M1310.603,441.216v4.663h2.33v-4.663H1310.603z M1354.904,438.884c1.939,3.115,2.914,5.446,2.914,6.995h2.332
		v-6.995H1354.904z M1357.819,433.638v2.331c3.106,0,4.664-1.548,4.664-4.663v-2.914
		C1359.367,429.175,1357.819,430.924,1357.819,433.638z M1360.151,361.356v5.247h2.332v-5.247H1360.151z M1362.482,438.884
		c1.548,3.115,2.332,5.446,2.332,6.995h2.914v-6.995H1362.482z M1370.06,421.397v2.332h4.664v-2.332H1370.06z M1372.392,398.663
		v9.91h2.332c3.497,0,5.246-1.548,5.246-4.663v-5.247l-5.246,2.915C1374.724,399.638,1373.94,398.663,1372.392,398.663z
		 M1387.547,319.387l-2.914,12.241v2.915h2.914l2.332-12.824v-2.332H1387.547z M1402.12,515.829h7.578
		c0,2.331-2.531,4.663-7.578,6.995h-4.664v-2.332C1397.839,517.386,1399.397,515.829,1402.12,515.829z M1412.03,520.492h5.246v2.332
		h-5.246V520.492z M1441.759,595.105h5.246v-5.246C1443.507,590.643,1441.759,592.392,1441.759,595.105z M1454.583,624.834h4.662
		v5.246h-4.662V624.834z M1454.583,632.412c3.106,0.382,4.662,1.939,4.662,4.662h-4.662V632.412z M1466.823,630.081v6.994h-5.246
		v-2.33C1462.351,631.629,1464.1,630.081,1466.823,630.081z M1466.823,530.402v2.332h5.246v-2.332H1466.823z M1466.823,555.467
		l5.246,2.332c0-1.548,0.774-4.08,2.332-7.578h-2.332C1468.573,551.004,1466.823,552.753,1466.823,555.467z M1469.155,518.16v7.578
		h2.914v-7.578H1469.155z M1469.155,535.648v9.91h2.914v-9.91H1469.155z M1474.401,605.015v7.578h-5.246v-2.332
		C1469.929,606.764,1471.678,605.015,1474.401,605.015z M1472.069,585.195h9.91v4.664h-9.91V585.195z M1472.069,617.256h2.332v5.246
		h-2.332V617.256z M1474.401,570.039c3.106,1.95,5.629,2.914,7.578,2.914v2.333c0,3.114-1.748,4.662-5.246,4.662l-2.332-4.662
		V570.039z M1484.311,500.673l-2.332,12.241c1.548,3.498,2.332,6.03,2.332,7.578h2.332c0-9.709,1.749-16.321,5.246-19.819H1484.311z
		 M1486.643,555.467h2.332c4.271,5.055,7.578,7.578,9.91,7.578v4.664h-4.664l-5.246-2.332c0,3.498-0.784,6.803-2.332,9.91h7.578
		v2.33c-3.89,0-7.195,0.784-9.91,2.332v-4.662C1485.859,563.628,1486.643,557.025,1486.643,555.467z M1484.311,595.105h4.664v2.332
		h-4.664V595.105z M1486.643,634.744h5.246v7.577h-5.246V634.744z M1491.889,448.793l-2.914,12.242v2.332h5.246v-14.573H1491.889z
		 M1491.889,505.919v4.664h2.332v-4.664H1491.889z M1496.553,575.287h5.246l2.332,17.486v4.664l-12.241-2.332v-2.332
		c0-1.939,0.774-2.914,2.332-2.914l-2.332-4.664v-2.33C1494.995,582.865,1496.553,580.342,1496.553,575.287z M1491.889,642.321
		c3.106,0.383,4.664,1.941,4.664,4.664v5.246h-4.664V642.321z M1494.221,545.558h7.578v4.663h-2.914
		C1495.769,550.221,1494.221,548.672,1494.221,545.558z M1496.553,605.015h5.246l2.332,12.242l-5.246,2.914l2.914,4.664
		c0,1.548-0.975,2.332-2.914,2.332l2.914,5.246v2.332c-3.497,0-6.03-6.614-7.578-19.82l4.664-2.332l-2.332-5.246V605.015z
		 M1514.04,480.854c0,6.221-1.749,11.276-5.246,15.156v2.332c1.939,0,4.463,0.784,7.578,2.332c0-3.106,0.774-4.664,2.33-4.664
		c-1.556-2.714-2.33-7.769-2.33-15.156H1514.04z M1511.708,503.005v5.246h4.664v-5.246H1511.708z M1516.372,351.447v5.246h2.33
		v-5.246H1516.372z M1521.618,610.261v4.664h7.578c0-3.106-1.749-4.664-5.246-4.664H1521.618z M1523.95,528.07h5.246v-5.246
		C1525.698,523.607,1523.95,525.356,1523.95,528.07z M1523.95,555.467v4.664h5.246
		C1529.196,557.025,1527.447,555.467,1523.95,555.467z M1523.95,565.377v7.577h2.33v-7.577H1523.95z M1526.281,530.402v15.156h2.916
		l2.33-15.156H1526.281z M1541.436,565.377c0,6.613-4.08,9.91-12.24,9.91v2.33c8.161,0,12.24,3.307,12.24,9.91h2.332v-22.151
		H1541.436z M1531.527,463.367v5.246h2.332v-5.246H1531.527z M1549.014,453.457c1.548,3.115,2.332,6.412,2.332,9.91h2.332
		l2.332-12.242C1552.894,452.683,1550.563,453.457,1549.014,453.457z M1549.014,465.698v7.578h2.332v-7.578H1549.014z
		 M1549.014,475.608v9.91h2.332v-9.91H1549.014z M1558.924,421.397c-3.497,13.99-5.246,23.126-5.246,27.397l5.246-2.914
		c0,1.949,0.774,2.914,2.332,2.914v-2.914c0-1.166-0.784-6.02-2.332-14.573c1.548-3.498,2.332-6.02,2.332-7.578v-2.332H1558.924z
		 M1563.588,398.663v15.156l5.246,2.332v-7.578h-5.246l2.332-4.663v-5.247H1563.588z"/>
	<path style="fill:#E74C3C;" d="M1708.707,336.611c2.158,7.728,5.563,12.675,10.198,14.833c0.304-5.251,2.006-7.88,5.099-7.88h1.854
		l-3.244,9.271c2.469,0,3.708,1.854,3.708,5.563l5.563-4.172h5.563v1.854l-5.098,9.271v1.854h3.707
		c0.304-6.178,2.007-9.423,5.1-9.735h1.854l0.464,1.854l-1.855,3.708h1.855c2.158-1.231,4.635-2.007,7.416-2.318
		c0,1.854-2.629,11.284-7.881,28.276c2.47,5.563,3.861,11.125,4.172,16.688h-1.854l2.318,3.709l-10.199,26.422l3.709,1.391v2.781
		c0,5.563-1.55,8.503-4.635,8.807l1.854,3.709v4.172c0,0.927-0.463,1.391-1.391,1.391l1.854,3.708v1.391
		c0,5.258-1.702,7.88-5.098,7.88l1.854,3.709l0.463,3.708c0,2.477-1.239,3.708-3.707,3.708c0-0.927-0.464-1.391-1.391-1.391h-0.464
		c0,2.166-1.086,5.258-3.244,9.271h1.854l3.709-2.318v3.709c-2.477,18.853-4.483,28.276-6.026,28.276l1.854,3.709l-3.245,5.563
		h3.708l-1.854,3.708c0,1.239,0.615,1.854,1.854,1.854c-1.854,4.331-2.781,8.192-2.781,11.588v1.391h1.855l-1.855,3.709
		l0.927,22.251h-1.854c-2.477,0-3.868-4.173-4.172-12.517h-1.855l0.927,18.541l3.709-1.852l1.854-0.464v1.855l2.781,18.542
		l-4.172-1.855l0.463,1.855c0.304,2.781,4.172,6.953,11.59,12.516c2.781,6.185,4.172,10.509,4.172,12.979
		c-2.166,0-3.246,0.928-3.246,2.781v0.928c-8.966-0.312-13.442-1.239-13.442-2.781l-3.709,1.854
		c-8.655-5.563-15.297-8.344-19.932-8.344h-0.464c0,2.477-1.239,3.709-3.708,3.709h-1.855c-4.946,0-7.416-1.08-7.416-3.246
		c-4.947,1.239-7.416,2.629-7.416,4.172c-1.855,0-7.577-4.635-17.152-13.907l-3.708,1.855h-1.855
		c-0.311-2.47-4.483-9.576-12.516-21.324l1.855-9.733h-0.464c-3.403,0-5.411-4.172-6.026-12.517l-0.463-7.417l1.391-11.125
		l-1.855-3.708l1.391-11.125l-0.463-9.271h3.709v-3.708h-3.709l-0.463-5.563h3.707v3.708l1.855-0.463v-7.417l-3.709,0.464
		c2.158-3.397,4.635-15.913,7.416-37.548c16.688-87.452,32.602-131.489,47.747-132.112l3.708,1.391L1708.707,336.611z
		 M1646.128,584.611v1.852h3.708v-1.852H1646.128z M1660.034,600.835v3.709h1.854v-3.709H1660.034z M1698.508,478.457l3.709-0.464
		v-3.708C1699.74,474.908,1698.508,476.299,1698.508,478.457z M1709.633,437.202l0.464,3.708l1.854-0.464l-0.463-3.708
		L1709.633,437.202z M1711.488,433.03h1.854l1.391-9.271c-2.166,0-3.244,1.55-3.244,4.636V433.03z M1714.27,418.196l0.463,3.709
		h1.854l-0.463-3.709H1714.27z M1720.759,397.336v0.928c0,3.092-1.55,7.88-4.635,14.37v1.854h1.854l5.1-15.297l-0.463-1.854
		H1720.759z M1751.817,141.92l10.661,10.661l0.464-2.318h2.781c18.542,13.291,27.813,25.496,27.813,36.621
		c0,0.927-0.16,1.854-0.464,2.781c0.617,0.311,0.928,1.391,0.928,3.244v2.318l-0.463,1.391
		c-7.114,20.092-10.821,31.521-11.125,34.303c0.615,0,0.926,0.312,0.926,0.927v0.464c-1.854,0-2.781,0.775-2.781,2.318
		c0.304,1.239,0.464,2.318,0.464,3.245v0.927c-2.166,0-6.186,10.046-12.053,30.131c-3.092,3.708-7.729,7.112-13.906,10.198v-0.927
		c0-1.231-0.776-1.854-2.318-1.854c-0.622,4.02-1.55,6.026-2.781,6.026h-1.854c-2.166-0.304-3.244-2.318-3.244-6.026v-1.391
		l-2.781,0.928v-12.053l-2.318-0.463l0.928,2.781l-1.391,8.344c0,1.55-0.623,2.318-1.855,2.318h-0.926l-1.391-0.464
		c-2.166,0-3.709-5.099-4.636-15.297l-2.781-1.854l-0.463,5.099h-1.391c-2.781-0.616-4.172-3.549-4.172-8.808
		c0-1.854,0.152-4.012,0.463-6.489l-2.781,0.927l-1.854-4.635c0-0.616,0.304-0.928,0.927-0.928h0.463l-0.928-3.244l1.855-14.37
		l0.463-13.907l2.781,0.464l0.927-6.953l1.391,0.463l-0.464-6.953c4.324-17.303,7.722-25.959,10.199-25.959l-0.928-2.781v-1.391
		h2.781l0.927-7.88c0.304-0.928,0.926-1.391,1.854-1.391c0-0.616-0.463-1.08-1.391-1.391c3.709-11.125,6.33-16.688,7.881-16.688
		l2.317,1.854c0.617-1.543,1.543-2.318,2.781-2.318H1751.817z M1720.295,538.719v5.563h1.854v-5.563H1720.295z M1727.249,378.794
		l0.463,1.854l3.709-0.463l-0.463-5.563C1728.48,375.245,1727.249,376.636,1727.249,378.794z M1727.249,491.9v5.563h1.854V491.9
		H1727.249z M1730.03,252.708l-0.463,2.318l2.781,0.463l0.463-2.781H1730.03z M1730.958,244.364
		c0.615,1.854,0.926,3.245,0.926,4.172l1.391,0.464l0.464-4.172L1730.958,244.364z M1730.958,369.06v3.708h1.854v-3.708H1730.958z
		 M1731.421,241.583v1.391l2.781,0.464v-1.391L1731.421,241.583z M1731.884,356.08l0.464,3.708h1.854l-0.463-3.708H1731.884z
		 M1737.911,402.435l3.708-0.464l-0.463-3.708C1738.989,398.886,1737.911,400.277,1737.911,402.435z M1744.4,387.138h1.855
		l0.463,3.708h-1.854L1744.4,387.138z M1747.645,377.867l1.854-0.463l0.463,3.708l-1.854,0.464L1747.645,377.867z"/>
</g>
</svg>
